<svg width="164" height="26" viewBox="0 0 164 26" fill="none" xmlns="http://www.w3.org/2000/svg">
<g clip-path="url(#clip0_61_868)">
<mask id="mask0_61_868" style="mask-type:luminance" maskUnits="userSpaceOnUse" x="0" y="0" width="28" height="26">
<path d="M27.0483 0.56543H0.0744629V25.4975H27.0483V0.56543Z" fill="white"/>
</mask>
<g mask="url(#mask0_61_868)">
<path d="M13.5614 20.119C21.01 20.119 27.0482 16.928 27.0482 12.9919C27.0482 9.05566 21.01 5.86475 13.5614 5.86475C6.11275 5.86475 0.0744629 9.05566 0.0744629 12.9919C0.0744629 16.928 6.11275 20.119 13.5614 20.119Z" fill="url(#paint0_linear_61_868)"/>
<path d="M13.5611 14.8197C21.0097 14.8197 27.048 11.6288 27.048 7.69256C27.048 3.75636 21.0097 0.56543 13.5611 0.56543C6.11251 0.56543 0.0742188 3.75636 0.0742188 7.69256C0.0742188 11.6288 6.11251 14.8197 13.5611 14.8197Z" fill="url(#paint1_linear_61_868)"/>
<path d="M13.5614 25.4959C21.01 25.4959 27.0482 22.3051 27.0482 18.3688C27.0482 14.4327 21.01 11.2417 13.5614 11.2417C6.11275 11.2417 0.0744629 14.4327 0.0744629 18.3688C0.0744629 22.3051 6.11275 25.4959 13.5614 25.4959Z" fill="url(#paint2_linear_61_868)"/>
</g>
<path d="M42.8003 7.97557C44.8662 7.97557 46.5507 8.71918 47.8536 10.2077C49.1565 11.6963 49.8086 13.5426 49.8086 15.7478C49.8086 17.9531 49.162 19.7885 47.8671 21.2542C46.5723 22.7199 44.9014 23.4527 42.8544 23.4527C40.599 23.4527 38.8443 22.5746 37.5914 20.8172L37.3073 23.2645H35.1831V2.61035H37.7267V10.517C38.9809 8.82272 40.6721 7.97557 42.8003 7.97557ZM42.435 21.2475C43.8961 21.2475 45.0705 20.7204 45.9594 19.6674C46.8484 18.6146 47.2921 17.3075 47.2921 15.7478C47.2921 14.188 46.8484 12.8527 45.9594 11.7944C45.0705 10.7362 43.8961 10.2077 42.435 10.2077C41.2714 10.2077 40.2662 10.5883 39.4178 11.3507C38.5696 12.1131 38.0053 13.0893 37.7267 14.282V17.1731C38.0067 18.3833 38.5696 19.365 39.4178 20.1179C40.2662 20.8709 41.2714 21.2475 42.435 21.2475Z" fill="white" stroke="white" stroke-width="2.17299" stroke-miterlimit="10"/>
<path d="M63.1706 21.2138C61.7772 22.7064 59.998 23.4527 57.8332 23.4527C55.6685 23.4527 53.8894 22.7064 52.4958 21.2138C51.1022 19.7212 50.4055 17.8722 50.4055 15.667C50.4055 13.4617 51.0983 11.6101 52.4822 10.1135C53.8663 8.6169 55.6509 7.86792 57.8332 7.86792C60.0155 7.86792 61.8001 8.6169 63.1842 10.1135C64.5683 11.6101 65.261 13.4617 65.261 15.667C65.261 17.8722 64.5642 19.7212 63.1706 21.2138ZM54.2952 19.5867C55.1923 20.6396 56.372 21.1667 57.8332 21.1667C59.2944 21.1667 60.4715 20.6396 61.3645 19.5867C62.2575 18.5339 62.7039 17.2268 62.7039 15.667C62.7039 14.1071 62.2575 12.7719 61.3645 11.7137C60.4715 10.6554 59.2944 10.127 57.8332 10.127C56.372 10.127 55.1923 10.6554 54.2952 11.7137C53.3982 12.7719 52.9491 14.0897 52.9491 15.667C52.9491 17.2443 53.3982 18.5339 54.2952 19.5867Z" fill="white" stroke="white" stroke-width="2.17299" stroke-miterlimit="10"/>
<path d="M67.738 23.2645V2.61035H70.1462V23.2645H67.738Z" fill="white" stroke="white" stroke-width="2.17299" stroke-miterlimit="10"/>
<path d="M79.6981 23.2913C78.237 23.2913 77.11 22.9982 76.3158 22.4106C75.5216 21.823 75.1252 20.7406 75.1252 19.1632V10.0733H72.7439V8.06971H75.1252V2.61035H77.5876V8.06971H81.1999V10.1002L77.5334 10.0733V18.8808C77.5334 19.6339 77.6782 20.1945 77.9664 20.5617C78.2545 20.9288 78.8323 21.113 79.6981 21.113H81.3623V23.2913H79.6981Z" fill="white" stroke="white" stroke-width="2.17299" stroke-miterlimit="10"/>
<path d="M98.1689 7.97538L98.1419 10.1537C96.5007 10.0636 95.1694 10.4361 94.1507 11.2698C93.1318 12.1035 92.6218 13.3675 92.6218 15.0618V23.2643H90.0242V8.12329H92.3512L92.6218 10.8664C93.5323 8.8131 95.3819 7.85033 98.1689 7.97538Z" fill="white" stroke="white" stroke-width="2.17299" stroke-miterlimit="10"/>
<path d="M111.462 21.2138C110.068 22.7064 108.289 23.4527 106.124 23.4527C103.959 23.4527 102.18 22.7064 100.787 21.2138C99.3933 19.7212 98.6965 17.8722 98.6965 15.667C98.6965 13.4617 99.3891 11.6101 100.773 10.1135C102.157 8.6169 103.942 7.86792 106.124 7.86792C108.307 7.86792 110.091 8.6169 111.475 10.1135C112.859 11.6101 113.552 13.4617 113.552 15.667C113.552 17.8722 112.855 19.7212 111.462 21.2138ZM102.586 19.5867C103.483 20.6396 104.663 21.1667 106.124 21.1667C107.585 21.1667 108.763 20.6396 109.655 19.5867C110.548 18.5339 110.995 17.2268 110.995 15.667C110.995 14.1071 110.548 12.7719 109.655 11.7137C108.763 10.6554 107.585 10.127 106.124 10.127C104.663 10.127 103.483 10.6554 102.586 11.7137C101.689 12.7719 101.24 14.0897 101.24 15.667C101.24 17.2443 101.689 18.5339 102.586 19.5867Z" fill="white" stroke="white" stroke-width="2.17299" stroke-miterlimit="10"/>
<path d="M128.422 8.12329V23.2643H126.149L125.893 20.9783C125.361 21.7139 124.628 22.3055 123.694 22.7533C122.76 23.2011 121.793 23.4257 120.792 23.4257C119.132 23.4257 117.772 22.8945 116.712 21.8322C115.653 20.7699 115.123 19.4091 115.123 17.7512V8.12329H117.721V17.4553C117.721 18.558 118.059 19.4481 118.735 20.1244C119.412 20.8008 120.305 21.1397 121.414 21.1397C122.595 21.1397 123.629 20.7928 124.512 20.0976C125.396 19.4024 125.838 18.5216 125.838 17.4553V8.12329H128.422Z" fill="white" stroke="white" stroke-width="2.17299" stroke-miterlimit="10"/>
<path d="M136.839 23.2913C135.378 23.2913 134.251 22.9982 133.456 22.4106C132.662 21.823 132.266 20.7406 132.266 19.1632V10.0733H129.885V8.06971H132.266V2.61035H134.728V8.06971H138.34V10.1002L134.674 10.0733V18.8808C134.674 19.6339 134.819 20.1945 135.108 20.5617C135.395 20.9288 135.973 21.113 136.839 21.113H138.503V23.2913H136.839Z" fill="white" stroke="white" stroke-width="2.17299" stroke-miterlimit="10"/>
<path d="M153.643 15.6133C153.643 15.7746 153.626 16.0745 153.588 16.5142H142.183C142.238 18.0203 142.715 19.2008 143.618 20.0574C144.52 20.9139 145.553 21.3509 146.716 21.3684C147.825 21.386 148.746 21.156 149.475 20.6759C150.206 20.1959 150.703 19.5532 150.965 18.7464H153.156C153.083 19.2574 152.912 19.7657 152.642 20.2726C152.371 20.7795 151.997 21.281 151.519 21.7785C151.041 22.2761 150.393 22.6701 149.577 22.9618C148.762 23.2537 147.847 23.399 146.838 23.399C144.71 23.3814 142.993 22.6431 141.69 21.187C140.386 19.7306 139.735 17.9086 139.735 15.7209C139.735 13.5331 140.368 11.633 141.635 10.1808C142.903 8.72857 144.628 8.00244 146.811 8.00244C148.992 8.00244 150.554 8.70167 151.789 10.1001C153.024 11.4986 153.643 13.3367 153.643 15.6133ZM146.811 10.1001C145.502 10.1001 144.453 10.5089 143.665 11.3238C142.876 12.14 142.4 13.2372 142.238 14.6183H151.262C151.117 13.2372 150.662 12.14 149.895 11.3238C149.128 10.5076 148.099 10.1001 146.811 10.1001Z" fill="white" stroke="white" stroke-width="2.17299" stroke-miterlimit="10"/>
<path d="M163.751 7.97538L163.724 10.1537C162.082 10.0636 160.751 10.4361 159.732 11.2698C158.714 12.1035 158.203 13.3675 158.203 15.0618V23.2643H155.606V8.12329H157.933L158.203 10.8664C159.115 8.8131 160.964 7.85033 163.751 7.97538Z" fill="white" stroke="white" stroke-width="2.17299" stroke-miterlimit="10"/>
</g>
<defs>
<linearGradient id="paint0_linear_61_868" x1="0.0744629" y1="12.9919" x2="27.0482" y2="12.9919" gradientUnits="userSpaceOnUse">
<stop stop-color="#366CEF" stop-opacity="0.5"/>
<stop offset="1" stop-color="#366CEF" stop-opacity="0"/>
</linearGradient>
<linearGradient id="paint1_linear_61_868" x1="27.0493" y1="7.69256" x2="0.0742188" y2="7.69256" gradientUnits="userSpaceOnUse">
<stop stop-color="#366CEF"/>
<stop offset="1" stop-color="#366CEF" stop-opacity="0"/>
</linearGradient>
<linearGradient id="paint2_linear_61_868" x1="27.0482" y1="18.3688" x2="0.0744629" y2="18.3688" gradientUnits="userSpaceOnUse">
<stop stop-color="#366CEF"/>
<stop offset="1" stop-color="#366CEF" stop-opacity="0"/>
</linearGradient>
<clipPath id="clip0_61_868">
<rect width="164" height="25" fill="white" transform="translate(0 0.5)"/>
</clipPath>
</defs>
</svg>
