<svg width="656" height="520" viewBox="0 0 656 520" fill="none" xmlns="http://www.w3.org/2000/svg">
<rect width="656" height="520" rx="12" fill="#131A2A"/>
<path d="M42.3623 46.5938V50.1895H46.9971V51.2969H42.3623V56H41.1318V45.5H47.585V46.5938H42.3623ZM53.1631 48.2275L53.1494 49.335C52.32 49.2894 51.6478 49.4785 51.1328 49.9023C50.6178 50.3262 50.3604 50.9688 50.3604 51.8301V56H49.0479V48.3027H50.2236L50.3604 49.6973C50.8206 48.6536 51.7549 48.1637 53.1631 48.2275ZM60.1562 54.9609C59.4544 55.7174 58.5566 56.0957 57.4629 56.0957C56.3691 56.0957 55.4691 55.7174 54.7627 54.9609C54.0609 54.1999 53.71 53.2588 53.71 52.1377C53.71 51.0166 54.0586 50.0755 54.7559 49.3145C55.4577 48.5534 56.36 48.1729 57.4629 48.1729C58.5658 48.1729 59.4658 48.5534 60.1631 49.3145C60.8649 50.0755 61.2158 51.0166 61.2158 52.1377C61.2158 53.2588 60.8626 54.1999 60.1562 54.9609ZM55.6719 54.1338C56.1276 54.667 56.7246 54.9336 57.4629 54.9336C58.2012 54.9336 58.7959 54.667 59.2471 54.1338C59.6982 53.596 59.9238 52.9307 59.9238 52.1377C59.9238 51.3356 59.6982 50.6657 59.2471 50.1279C58.7959 49.5902 58.2012 49.3213 57.4629 49.3213C56.7246 49.3213 56.1276 49.5902 55.6719 50.1279C55.2207 50.6657 54.9951 51.3356 54.9951 52.1377C54.9951 52.9307 55.2207 53.596 55.6719 54.1338ZM71.1279 48.2275C71.93 48.2275 72.5658 48.4714 73.0352 48.959C73.5091 49.4421 73.7461 50.1006 73.7461 50.9346V56H72.4404V51.0713C72.4404 50.5472 72.2946 50.1325 72.0029 49.8271C71.7158 49.5173 71.3125 49.3623 70.793 49.3623C70.2415 49.3623 69.7607 49.5309 69.3506 49.8682C68.9404 50.2054 68.7354 50.6338 68.7354 51.1533V56H67.4434V51.0713C67.4434 50.5472 67.293 50.1325 66.9922 49.8271C66.696 49.5173 66.2926 49.3623 65.7822 49.3623C65.2308 49.3623 64.7523 49.5309 64.3467 49.8682C63.9411 50.2054 63.7383 50.6338 63.7383 51.1533V56H62.4326V48.3027H63.6084L63.6631 49.4033C63.9137 49.0479 64.2601 48.763 64.7021 48.5488C65.1488 48.3346 65.6159 48.2275 66.1035 48.2275C67.1016 48.2275 67.8626 48.722 68.3867 49.7109C68.6556 49.2734 69.0407 48.918 69.542 48.6445C70.0479 48.3665 70.5765 48.2275 71.1279 48.2275ZM76.5693 50.4561C76.3551 50.4561 76.1683 50.3786 76.0088 50.2236C75.8493 50.0687 75.7695 49.8796 75.7695 49.6562C75.7695 49.4421 75.8493 49.2575 76.0088 49.1025C76.1683 48.943 76.3551 48.8633 76.5693 48.8633C76.7835 48.8633 76.9727 48.943 77.1367 49.1025C77.3008 49.2575 77.3828 49.4421 77.3828 49.6562C77.3828 49.8796 77.3031 50.0687 77.1436 50.2236C76.984 50.3786 76.7926 50.4561 76.5693 50.4561ZM77.1367 55.9043C76.9727 56.0592 76.7835 56.1367 76.5693 56.1367C76.3551 56.1367 76.1683 56.0592 76.0088 55.9043C75.8493 55.7448 75.7695 55.5579 75.7695 55.3438C75.7695 55.1204 75.8493 54.929 76.0088 54.7695C76.1683 54.61 76.3551 54.5303 76.5693 54.5303C76.7835 54.5303 76.9727 54.61 77.1367 54.7695C77.3008 54.929 77.3828 55.1204 77.3828 55.3438C77.3828 55.5579 77.3008 55.7448 77.1367 55.9043Z" fill="#EEEFFB"/>
<path d="M84.1183 53.92V52.212H89.7883V53.92H84.1183ZM91.214 53.92V52.212H96.884V53.92H91.214Z" fill="#EEEFFB"/>
<path d="M506.89 56.1367C505.778 56.1367 504.875 55.8223 504.183 55.1934C503.49 54.5645 503.096 53.751 503 52.7529H504.627C504.741 53.2269 504.98 53.6279 505.345 53.9561C505.714 54.2842 506.249 54.4482 506.951 54.4482C507.539 54.4482 508.008 54.3343 508.359 54.1064C508.715 53.874 508.897 53.5299 508.906 53.0742C508.906 52.8965 508.879 52.7347 508.824 52.5889C508.77 52.4385 508.665 52.2972 508.51 52.165C508.355 52.0329 508.227 51.9281 508.127 51.8506C508.031 51.7686 507.844 51.6706 507.566 51.5566C507.293 51.4382 507.106 51.3584 507.006 51.3174C506.91 51.2764 506.696 51.1943 506.363 51.0713C505.999 50.93 505.7 50.8138 505.468 50.7227C505.24 50.627 504.976 50.4925 504.675 50.3193C504.379 50.1416 504.144 49.9639 503.971 49.7861C503.802 49.6084 503.656 49.3828 503.533 49.1094C503.41 48.8314 503.349 48.5283 503.349 48.2002C503.349 47.3434 503.702 46.6576 504.408 46.1426C505.115 45.623 505.967 45.3633 506.965 45.3633C509.139 45.3633 510.417 46.4411 510.8 48.5967H509.118C509.063 48.141 508.854 47.7422 508.489 47.4004C508.125 47.0586 507.63 46.8877 507.006 46.8877C506.523 46.8877 506.104 46.9993 505.748 47.2227C505.393 47.446 505.215 47.749 505.215 48.1318C505.215 48.2913 505.258 48.444 505.345 48.5898C505.436 48.7311 505.534 48.8496 505.639 48.9453C505.748 49.0365 505.919 49.1413 506.151 49.2598C506.384 49.3737 506.571 49.4603 506.712 49.5195C506.853 49.5742 507.076 49.6631 507.382 49.7861C508.416 50.1963 509.12 50.5267 509.494 50.7773C510.333 51.3561 510.754 52.1126 510.759 53.0469C510.759 54.0358 510.39 54.7992 509.651 55.3369C508.913 55.8701 507.993 56.1367 506.89 56.1367ZM518.805 52.124C518.805 52.3018 518.791 52.5023 518.764 52.7256H513.384C513.429 53.3044 513.632 53.7646 513.992 54.1064C514.352 54.4437 514.781 54.6123 515.277 54.6123C516.184 54.6123 516.795 54.2682 517.109 53.5801H518.647C518.534 54.2728 518.187 54.8607 517.608 55.3438C517.034 55.8268 516.253 56.0684 515.264 56.0684C514.152 56.0684 513.254 55.7015 512.57 54.9678C511.891 54.2295 511.552 53.2907 511.552 52.1514C511.552 50.9938 511.88 50.0505 512.536 49.3213C513.197 48.5921 514.106 48.2275 515.264 48.2275C516.357 48.2275 517.221 48.5807 517.854 49.2871C518.488 49.9935 518.805 50.9391 518.805 52.124ZM515.25 49.7109C514.735 49.7109 514.323 49.8613 514.013 50.1621C513.707 50.4629 513.514 50.873 513.432 51.3926H516.986C516.836 50.2715 516.257 49.7109 515.25 49.7109ZM520.186 56V45.5H521.949V56H520.186ZM530.672 52.124C530.672 52.3018 530.658 52.5023 530.631 52.7256H525.251C525.297 53.3044 525.499 53.7646 525.859 54.1064C526.219 54.4437 526.648 54.6123 527.145 54.6123C528.051 54.6123 528.662 54.2682 528.977 53.5801H530.515C530.401 54.2728 530.054 54.8607 529.476 55.3438C528.901 55.8268 528.12 56.0684 527.131 56.0684C526.019 56.0684 525.121 55.7015 524.438 54.9678C523.758 54.2295 523.419 53.2907 523.419 52.1514C523.419 50.9938 523.747 50.0505 524.403 49.3213C525.064 48.5921 525.973 48.2275 527.131 48.2275C528.225 48.2275 529.088 48.5807 529.722 49.2871C530.355 49.9935 530.672 50.9391 530.672 52.124ZM527.117 49.7109C526.602 49.7109 526.19 49.8613 525.88 50.1621C525.575 50.4629 525.381 50.873 525.299 51.3926H528.854C528.703 50.2715 528.124 49.7109 527.117 49.7109ZM535.02 56.0684C533.908 56.0684 533.014 55.7038 532.34 54.9746C531.67 54.2409 531.335 53.2952 531.335 52.1377C531.335 50.9801 531.67 50.0391 532.34 49.3145C533.014 48.5898 533.908 48.2275 535.02 48.2275C535.653 48.2275 536.209 48.321 536.688 48.5078C537.171 48.6947 537.549 48.943 537.822 49.2529C538.1 49.5583 538.308 49.875 538.444 50.2031C538.586 50.5312 538.674 50.8685 538.711 51.2148H537.022C536.977 50.8229 536.779 50.4902 536.428 50.2168C536.077 49.9388 535.658 49.7998 535.17 49.7998C534.546 49.7998 534.062 50.0117 533.721 50.4355C533.379 50.8594 533.208 51.4268 533.208 52.1377C533.208 52.8395 533.381 53.4069 533.728 53.8398C534.074 54.2728 534.559 54.4893 535.184 54.4893C535.648 54.4893 536.052 54.3434 536.394 54.0518C536.735 53.7555 536.945 53.4115 537.022 53.0195H538.697C538.652 53.3841 538.558 53.7327 538.417 54.0654C538.28 54.3936 538.077 54.7171 537.809 55.0361C537.544 55.3506 537.171 55.6012 536.688 55.7881C536.209 55.9749 535.653 56.0684 535.02 56.0684ZM543.448 56.0137C542.993 56.0137 542.614 55.9909 542.313 55.9453C542.017 55.8997 541.721 55.7972 541.425 55.6377C541.133 55.4782 540.914 55.2275 540.769 54.8857C540.627 54.5439 540.557 54.1042 540.557 53.5664V49.7861H539.278V48.2754H540.557V45.5H542.334V48.2754H544.316V49.7861H542.32V53.4229C542.32 53.7965 542.409 54.0654 542.587 54.2295C542.769 54.3936 543.056 54.4756 543.448 54.4756H544.378V56.0137H543.448ZM556.443 47.0791H553.401V56H551.61V47.0791H548.562V45.5H556.443V47.0791ZM562.186 54.9609C561.447 55.7174 560.513 56.0957 559.383 56.0957C558.257 56.0957 557.327 55.7174 556.594 54.9609C555.86 54.1999 555.493 53.2588 555.493 52.1377C555.493 51.0166 555.86 50.0755 556.594 49.3145C557.327 48.5534 558.257 48.1729 559.383 48.1729C560.513 48.1729 561.447 48.5534 562.186 49.3145C562.924 50.0755 563.293 51.0166 563.293 52.1377C563.293 53.2588 562.924 54.1999 562.186 54.9609ZM557.934 53.7715C558.307 54.2044 558.793 54.4209 559.39 54.4209C559.987 54.4209 560.472 54.2021 560.846 53.7646C561.219 53.3226 561.406 52.7803 561.406 52.1377C561.406 51.4906 561.217 50.946 560.839 50.5039C560.461 50.0618 559.978 49.8408 559.39 49.8408C558.793 49.8408 558.307 50.0596 557.934 50.4971C557.56 50.9346 557.373 51.4814 557.373 52.1377C557.373 52.7894 557.56 53.334 557.934 53.7715ZM564.407 56V45.5H566.321V51.2148L568.673 48.3027H570.662L567.695 51.8438L571.011 56H568.98L566.321 52.6367V56H564.407ZM578.715 52.124C578.715 52.3018 578.701 52.5023 578.674 52.7256H573.294C573.34 53.3044 573.542 53.7646 573.902 54.1064C574.262 54.4437 574.691 54.6123 575.188 54.6123C576.094 54.6123 576.705 54.2682 577.02 53.5801H578.558C578.444 54.2728 578.097 54.8607 577.519 55.3438C576.944 55.8268 576.163 56.0684 575.174 56.0684C574.062 56.0684 573.164 55.7015 572.48 54.9678C571.801 54.2295 571.462 53.2907 571.462 52.1514C571.462 50.9938 571.79 50.0505 572.446 49.3213C573.107 48.5921 574.016 48.2275 575.174 48.2275C576.268 48.2275 577.131 48.5807 577.765 49.2871C578.398 49.9935 578.715 50.9391 578.715 52.124ZM575.16 49.7109C574.645 49.7109 574.233 49.8613 573.923 50.1621C573.618 50.4629 573.424 50.873 573.342 51.3926H576.896C576.746 50.2715 576.167 49.7109 575.16 49.7109ZM584.136 48.2002C585.015 48.2002 585.703 48.4486 586.2 48.9453C586.701 49.4375 586.952 50.1279 586.952 51.0166V56H585.045V51.2422C585.045 50.8047 584.92 50.4697 584.669 50.2373C584.418 50.0003 584.061 49.8818 583.596 49.8818C583.09 49.8818 582.65 50.0186 582.276 50.292C581.903 50.5609 581.716 50.9095 581.716 51.3379V56H579.795V48.3027H581.504L581.634 49.3076C581.912 48.9704 582.276 48.7015 582.728 48.501C583.183 48.3005 583.653 48.2002 584.136 48.2002Z" fill="white"/>
<path d="M600 50L604 54L608 50" stroke="white" stroke-width="1.5" stroke-linecap="round" stroke-linejoin="round"/>
<rect x="40" y="72" width="576" height="64" rx="12" fill="#192134"/>
<path d="M317.24 108.137C315.969 108.137 314.998 107.64 314.328 106.646C313.658 105.653 313.323 104.354 313.323 102.75C313.323 101.155 313.665 99.8584 314.349 98.8604C315.037 97.8623 316.001 97.3633 317.24 97.3633C318.63 97.3633 319.646 97.8486 320.289 98.8193C320.936 99.79 321.26 101.1 321.26 102.75C321.26 104.4 320.936 105.71 320.289 106.681C319.646 107.651 318.63 108.137 317.24 108.137ZM317.254 107.077C319.122 107.077 320.057 105.635 320.057 102.75C320.057 99.8652 319.122 98.4229 317.254 98.4229C316.365 98.4229 315.688 98.8216 315.224 99.6191C314.759 100.417 314.526 101.46 314.526 102.75C314.526 104.058 314.75 105.104 315.196 105.888C315.643 106.672 316.329 107.068 317.254 107.077ZM323.256 108.137C323.042 108.137 322.855 108.059 322.695 107.904C322.54 107.745 322.463 107.558 322.463 107.344C322.463 107.12 322.54 106.929 322.695 106.77C322.855 106.61 323.042 106.53 323.256 106.53C323.479 106.53 323.671 106.61 323.83 106.77C323.99 106.929 324.069 107.12 324.069 107.344C324.069 107.558 323.99 107.745 323.83 107.904C323.671 108.059 323.479 108.137 323.256 108.137ZM329.271 108.137C328 108.137 327.029 107.64 326.359 106.646C325.689 105.653 325.354 104.354 325.354 102.75C325.354 101.155 325.696 99.8584 326.38 98.8604C327.068 97.8623 328.032 97.3633 329.271 97.3633C330.661 97.3633 331.678 97.8486 332.32 98.8193C332.967 99.79 333.291 101.1 333.291 102.75C333.291 104.4 332.967 105.71 332.32 106.681C331.678 107.651 330.661 108.137 329.271 108.137ZM329.285 107.077C331.154 107.077 332.088 105.635 332.088 102.75C332.088 99.8652 331.154 98.4229 329.285 98.4229C328.396 98.4229 327.72 98.8216 327.255 99.6191C326.79 100.417 326.558 101.46 326.558 102.75C326.558 104.058 326.781 105.104 327.228 105.888C327.674 106.672 328.36 107.068 329.285 107.077ZM338.76 108.137C337.488 108.137 336.518 107.64 335.848 106.646C335.178 105.653 334.843 104.354 334.843 102.75C334.843 101.155 335.185 99.8584 335.868 98.8604C336.556 97.8623 337.52 97.3633 338.76 97.3633C340.15 97.3633 341.166 97.8486 341.809 98.8193C342.456 99.79 342.779 101.1 342.779 102.75C342.779 104.4 342.456 105.71 341.809 106.681C341.166 107.651 340.15 108.137 338.76 108.137ZM338.773 107.077C340.642 107.077 341.576 105.635 341.576 102.75C341.576 99.8652 340.642 98.4229 338.773 98.4229C337.885 98.4229 337.208 98.8216 336.743 99.6191C336.278 100.417 336.046 101.46 336.046 102.75C336.046 104.058 336.269 105.104 336.716 105.888C337.162 106.672 337.848 107.068 338.773 107.077Z" fill="#9B9B9B"/>
<path d="M45.4551 154.283C45.998 154.404 46.4375 154.678 46.7734 155.104C47.1094 155.525 47.2773 156.027 47.2773 156.609C47.2773 157.305 47.0391 157.877 46.5625 158.326C46.0859 158.775 45.4961 159 44.793 159H40.7383V150H44.2773C44.9883 150 45.584 150.223 46.0645 150.668C46.5449 151.109 46.7852 151.68 46.7852 152.379C46.7852 152.875 46.6621 153.293 46.416 153.633C46.1738 153.969 45.8535 154.186 45.4551 154.283ZM45.7188 152.496C45.7188 152.062 45.5664 151.695 45.2617 151.395C44.957 151.09 44.5938 150.938 44.1719 150.938H41.793V153.938H44.1719C44.6133 153.938 44.9805 153.805 45.2734 153.539C45.5703 153.27 45.7188 152.922 45.7188 152.496ZM44.6641 158.051C45.0977 158.051 45.4629 157.9 45.7598 157.6C46.0605 157.295 46.2109 156.926 46.2109 156.492C46.2109 156.059 46.0586 155.67 45.7539 155.326C45.4492 154.982 45.0859 154.811 44.6641 154.811H41.793V158.051H44.6641ZM50.1602 159.059C49.5195 159.059 48.9941 158.881 48.584 158.525C48.1777 158.17 47.9746 157.709 47.9746 157.143C47.9746 156.541 48.1992 156.053 48.6484 155.678C49.0977 155.299 49.7773 155.078 50.6875 155.016L52.2988 154.91V154.693C52.2988 154.205 52.1582 153.838 51.877 153.592C51.5957 153.342 51.207 153.217 50.7109 153.217C50.2695 153.217 49.9043 153.34 49.6152 153.586C49.3301 153.828 49.1641 154.148 49.1172 154.547H48.1211C48.1836 153.922 48.4375 153.395 48.8828 152.965C49.3281 152.531 49.9551 152.314 50.7637 152.314C51.5566 152.314 52.1797 152.525 52.6328 152.947C53.0898 153.365 53.3184 153.955 53.3184 154.717C53.3184 155.037 53.3203 155.393 53.3242 155.783C53.3281 156.174 53.3301 156.506 53.3301 156.779C53.3301 157.053 53.3301 157.205 53.3301 157.236C53.3301 157.572 53.3672 157.809 53.4414 157.945C53.5195 158.082 53.6465 158.146 53.8223 158.139V159C53.7324 159 53.6074 158.992 53.4473 158.977C52.8535 158.879 52.498 158.574 52.3809 158.062C52.2051 158.344 51.9102 158.58 51.4961 158.771C51.0859 158.963 50.6406 159.059 50.1602 159.059ZM50.3184 158.174C50.8066 158.174 51.248 158.029 51.6426 157.74C52.0371 157.451 52.2559 157.119 52.2988 156.744V155.736L50.7871 155.854C49.6035 155.951 49.0117 156.371 49.0117 157.113C49.0117 157.434 49.1426 157.691 49.4043 157.887C49.6699 158.078 49.9746 158.174 50.3184 158.174ZM55.1992 159V150H56.2422V159H55.1992ZM59.8281 159.059C59.1875 159.059 58.6621 158.881 58.252 158.525C57.8457 158.17 57.6426 157.709 57.6426 157.143C57.6426 156.541 57.8672 156.053 58.3164 155.678C58.7656 155.299 59.4453 155.078 60.3555 155.016L61.9668 154.91V154.693C61.9668 154.205 61.8262 153.838 61.5449 153.592C61.2637 153.342 60.875 153.217 60.3789 153.217C59.9375 153.217 59.5723 153.34 59.2832 153.586C58.998 153.828 58.832 154.148 58.7852 154.547H57.7891C57.8516 153.922 58.1055 153.395 58.5508 152.965C58.9961 152.531 59.623 152.314 60.4316 152.314C61.2246 152.314 61.8477 152.525 62.3008 152.947C62.7578 153.365 62.9863 153.955 62.9863 154.717C62.9863 155.037 62.9883 155.393 62.9922 155.783C62.9961 156.174 62.998 156.506 62.998 156.779C62.998 157.053 62.998 157.205 62.998 157.236C62.998 157.572 63.0352 157.809 63.1094 157.945C63.1875 158.082 63.3145 158.146 63.4902 158.139V159C63.4004 159 63.2754 158.992 63.1152 158.977C62.5215 158.879 62.166 158.574 62.0488 158.062C61.873 158.344 61.5781 158.58 61.1641 158.771C60.7539 158.963 60.3086 159.059 59.8281 159.059ZM59.9863 158.174C60.4746 158.174 60.916 158.029 61.3105 157.74C61.7051 157.451 61.9238 157.119 61.9668 156.744V155.736L60.4551 155.854C59.2715 155.951 58.6797 156.371 58.6797 157.113C58.6797 157.434 58.8105 157.691 59.0723 157.887C59.3379 158.078 59.6426 158.174 59.9863 158.174ZM67.8203 152.326C68.5391 152.326 69.1152 152.545 69.5488 152.982C69.9824 153.42 70.1992 154.006 70.1992 154.74V159H69.0918V154.846C69.0918 154.381 68.9492 154.01 68.6641 153.732C68.3828 153.451 68.0059 153.311 67.5332 153.311C67.0215 153.311 66.5762 153.461 66.1973 153.762C65.8223 154.062 65.6348 154.441 65.6348 154.898V159H64.5332V152.402H65.4941L65.5996 153.387C65.8301 153.066 66.1465 152.811 66.5488 152.619C66.9551 152.424 67.3789 152.326 67.8203 152.326ZM74.2773 159.07C73.3672 159.07 72.625 158.75 72.0508 158.109C71.4766 157.465 71.1895 156.654 71.1895 155.678C71.1895 154.701 71.4727 153.9 72.0391 153.275C72.6094 152.65 73.3555 152.338 74.2773 152.338C75.1172 152.338 75.7969 152.559 76.3164 153C76.8359 153.441 77.1348 153.977 77.2129 154.605H76.2051C76.1426 154.223 75.9375 153.904 75.5898 153.65C75.2422 153.393 74.832 153.264 74.3594 153.264C73.7188 153.264 73.2109 153.482 72.8359 153.92C72.4609 154.354 72.2734 154.939 72.2734 155.678C72.2734 156.42 72.4629 157.014 72.8418 157.459C73.2207 157.9 73.7305 158.121 74.3711 158.121C74.8281 158.121 75.2207 157.992 75.5488 157.734C75.877 157.473 76.0957 157.143 76.2051 156.744H77.1895C77.0605 157.393 76.748 157.943 76.252 158.396C75.7598 158.846 75.1016 159.07 74.2773 159.07ZM83.8926 155.666C83.8926 155.736 83.8848 155.867 83.8691 156.059H78.9297C78.9531 156.715 79.1602 157.23 79.5508 157.605C79.9414 157.977 80.3887 158.166 80.8926 158.174C81.373 158.182 81.7715 158.082 82.0879 157.875C82.4043 157.664 82.6191 157.383 82.7324 157.031H83.6816C83.6504 157.254 83.5762 157.477 83.459 157.699C83.3418 157.918 83.1797 158.137 82.9727 158.355C82.7656 158.57 82.4844 158.742 82.1289 158.871C81.7773 158.996 81.3828 159.059 80.9453 159.059C80.0234 159.051 79.2793 158.73 78.7129 158.098C78.1504 157.461 77.8691 156.666 77.8691 155.713C77.8691 154.736 78.1426 153.932 78.6895 153.299C79.2402 152.666 79.9883 152.35 80.9336 152.35C81.8359 152.35 82.5547 152.654 83.0898 153.264C83.625 153.873 83.8926 154.674 83.8926 155.666ZM80.9336 153.264C80.3672 153.264 79.9121 153.441 79.5684 153.797C79.2285 154.152 79.0234 154.631 78.9531 155.232H82.8613C82.7988 154.631 82.6016 154.152 82.2695 153.797C81.9375 153.441 81.4922 153.264 80.9336 153.264ZM86.002 154.248C85.8184 154.248 85.6582 154.182 85.5215 154.049C85.3848 153.916 85.3164 153.754 85.3164 153.562C85.3164 153.379 85.3848 153.221 85.5215 153.088C85.6582 152.951 85.8184 152.883 86.002 152.883C86.1855 152.883 86.3477 152.951 86.4883 153.088C86.6289 153.221 86.6992 153.379 86.6992 153.562C86.6992 153.754 86.6309 153.916 86.4941 154.049C86.3574 154.182 86.1934 154.248 86.002 154.248ZM86.4883 158.918C86.3477 159.051 86.1855 159.117 86.002 159.117C85.8184 159.117 85.6582 159.051 85.5215 158.918C85.3848 158.781 85.3164 158.621 85.3164 158.438C85.3164 158.246 85.3848 158.082 85.5215 157.945C85.6582 157.809 85.8184 157.74 86.002 157.74C86.1855 157.74 86.3477 157.809 86.4883 157.945C86.6289 158.082 86.6992 158.246 86.6992 158.438C86.6992 158.621 86.6289 158.781 86.4883 158.918Z" fill="#EEEFFB"/>
<path d="M96.5167 160.216C95.8607 160.216 95.3007 160.104 94.8367 159.88C94.3807 159.648 94.0087 159.336 93.7207 158.944C93.4407 158.552 93.2367 158.1 93.1087 157.588C92.9807 157.068 92.9167 156.52 92.9167 155.944V155.296C92.9167 154.488 93.0407 153.76 93.2887 153.112C93.5447 152.464 93.9367 151.952 94.4647 151.576C95.0007 151.192 95.6847 151 96.5167 151C97.3487 151 98.0287 151.192 98.5567 151.576C99.0847 151.952 99.4727 152.464 99.7207 153.112C99.9767 153.76 100.105 154.488 100.105 155.296V155.944C100.105 156.52 100.041 157.068 99.9127 157.588C99.7847 158.1 99.5767 158.552 99.2887 158.944C99.0087 159.336 98.6407 159.648 98.1847 159.88C97.7287 160.104 97.1727 160.216 96.5167 160.216ZM96.5167 159.16C97.3487 159.16 97.9567 158.88 98.3407 158.32C98.7327 157.752 98.9287 156.856 98.9287 155.632C98.9287 154.352 98.7287 153.436 98.3287 152.884C97.9367 152.332 97.3327 152.056 96.5167 152.056C95.6927 152.056 95.0807 152.332 94.6807 152.884C94.2887 153.436 94.0927 154.344 94.0927 155.608C94.0927 156.84 94.2887 157.74 94.6807 158.308C95.0727 158.876 95.6847 159.16 96.5167 159.16ZM101.847 160V158.536H103.239V160H101.847ZM108.575 160.216C107.919 160.216 107.359 160.104 106.895 159.88C106.439 159.648 106.067 159.336 105.779 158.944C105.499 158.552 105.295 158.1 105.167 157.588C105.039 157.068 104.975 156.52 104.975 155.944V155.296C104.975 154.488 105.099 153.76 105.347 153.112C105.603 152.464 105.995 151.952 106.523 151.576C107.059 151.192 107.743 151 108.575 151C109.407 151 110.087 151.192 110.615 151.576C111.143 151.952 111.531 152.464 111.779 153.112C112.035 153.76 112.163 154.488 112.163 155.296V155.944C112.163 156.52 112.099 157.068 111.971 157.588C111.843 158.1 111.635 158.552 111.347 158.944C111.067 159.336 110.699 159.648 110.243 159.88C109.787 160.104 109.231 160.216 108.575 160.216ZM108.575 159.16C109.407 159.16 110.015 158.88 110.399 158.32C110.791 157.752 110.987 156.856 110.987 155.632C110.987 154.352 110.787 153.436 110.387 152.884C109.995 152.332 109.391 152.056 108.575 152.056C107.751 152.056 107.139 152.332 106.739 152.884C106.347 153.436 106.151 154.344 106.151 155.608C106.151 156.84 106.347 157.74 106.739 158.308C107.131 158.876 107.743 159.16 108.575 159.16ZM117.493 160.216C116.837 160.216 116.277 160.104 115.813 159.88C115.357 159.648 114.985 159.336 114.697 158.944C114.417 158.552 114.213 158.1 114.085 157.588C113.957 157.068 113.893 156.52 113.893 155.944V155.296C113.893 154.488 114.017 153.76 114.265 153.112C114.521 152.464 114.913 151.952 115.441 151.576C115.977 151.192 116.661 151 117.493 151C118.325 151 119.005 151.192 119.533 151.576C120.061 151.952 120.449 152.464 120.697 153.112C120.953 153.76 121.081 154.488 121.081 155.296V155.944C121.081 156.52 121.017 157.068 120.889 157.588C120.761 158.1 120.553 158.552 120.265 158.944C119.985 159.336 119.617 159.648 119.161 159.88C118.705 160.104 118.149 160.216 117.493 160.216ZM117.493 159.16C118.325 159.16 118.933 158.88 119.317 158.32C119.709 157.752 119.905 156.856 119.905 155.632C119.905 154.352 119.705 153.436 119.305 152.884C118.913 152.332 118.309 152.056 117.493 152.056C116.669 152.056 116.057 152.332 115.657 152.884C115.265 153.436 115.069 154.344 115.069 155.608C115.069 156.84 115.265 157.74 115.657 158.308C116.049 158.876 116.661 159.16 117.493 159.16Z" fill="#EEEFFB"/>
<path d="M140.656 150V159H138.857V152.543L136.719 159H134.85L132.676 152.543V159H130.865V150H133.408L135.758 156.674L138.137 150H140.656ZM147.934 157.178H144.025L143.34 159H141.383L144.992 150H147.025L150.635 159H148.678L147.934 157.178ZM147.418 155.613L146.018 151.834L144.553 155.613H147.418ZM156.77 159L154.754 155.854L152.738 159H150.676L153.781 154.383L150.846 150H152.896L154.754 152.895L156.629 150H158.68L155.727 154.365L158.838 159H156.77Z" fill="#3D6EFF"/>
<path fill-rule="evenodd" clip-rule="evenodd" d="M313 204V204C313 195.715 319.715 189 328 189V189C336.285 189 343 195.715 343 204V204C343 212.285 336.285 219 328 219V219C319.715 219 313 212.285 313 204Z" stroke="white" stroke-width="1.5" stroke-linecap="round" stroke-linejoin="round"/>
<path d="M328.001 210.665V197.332" stroke="white" stroke-width="1.5" stroke-linecap="round" stroke-linejoin="round"/>
<path d="M333 205.668L328 210.668L323 205.668" stroke="white" stroke-width="1.5" stroke-linecap="round" stroke-linejoin="round"/>
<path d="M43.7044 257V247.732H45.0764V257H43.7044ZM40.5964 248.012V246.78H48.1844V248.012H40.5964ZM52.3746 257.252C51.7212 257.252 51.1472 257.14 50.6526 256.916C50.1579 256.692 49.7379 256.398 49.3926 256.034C49.0566 255.661 48.7999 255.245 48.6226 254.788C48.4546 254.331 48.3706 253.864 48.3706 253.388V253.136C48.3706 252.66 48.4592 252.193 48.6366 251.736C48.8139 251.269 49.0752 250.854 49.4206 250.49C49.7659 250.117 50.1859 249.823 50.6806 249.608C51.1752 249.384 51.7399 249.272 52.3746 249.272C53.0092 249.272 53.5739 249.384 54.0686 249.608C54.5632 249.823 54.9832 250.117 55.3286 250.49C55.6739 250.854 55.9352 251.269 56.1126 251.736C56.2899 252.193 56.3786 252.66 56.3786 253.136V253.388C56.3786 253.864 56.2899 254.331 56.1126 254.788C55.9446 255.245 55.6879 255.661 55.3426 256.034C55.0066 256.398 54.5912 256.692 54.0966 256.916C53.6019 257.14 53.0279 257.252 52.3746 257.252ZM52.3746 256.048C52.9346 256.048 53.4106 255.927 53.8026 255.684C54.2039 255.432 54.5072 255.096 54.7126 254.676C54.9272 254.256 55.0346 253.785 55.0346 253.262C55.0346 252.73 54.9272 252.254 54.7126 251.834C54.4979 251.414 54.1899 251.083 53.7886 250.84C53.3966 250.597 52.9252 250.476 52.3746 250.476C51.8332 250.476 51.3619 250.597 50.9606 250.84C50.5592 251.083 50.2512 251.414 50.0366 251.834C49.8219 252.254 49.7146 252.73 49.7146 253.262C49.7146 253.785 49.8172 254.256 50.0226 254.676C50.2372 255.096 50.5406 255.432 50.9326 255.684C51.3339 255.927 51.8146 256.048 52.3746 256.048ZM58.1255 257V255.292H59.7495V257H58.1255ZM58.1255 251.82V250.112H59.7495V251.82H58.1255Z" fill="#EEEFFB"/>
<path d="M66.1183 253.92V252.212H71.7883V253.92H66.1183ZM73.214 253.92V252.212H78.884V253.92H73.214Z" fill="#EEEFFB"/>
<path d="M506.89 256.137C505.778 256.137 504.875 255.822 504.183 255.193C503.49 254.564 503.096 253.751 503 252.753H504.627C504.741 253.227 504.98 253.628 505.345 253.956C505.714 254.284 506.249 254.448 506.951 254.448C507.539 254.448 508.008 254.334 508.359 254.106C508.715 253.874 508.897 253.53 508.906 253.074C508.906 252.896 508.879 252.735 508.824 252.589C508.77 252.438 508.665 252.297 508.51 252.165C508.355 252.033 508.227 251.928 508.127 251.851C508.031 251.769 507.844 251.671 507.566 251.557C507.293 251.438 507.106 251.358 507.006 251.317C506.91 251.276 506.696 251.194 506.363 251.071C505.999 250.93 505.7 250.814 505.468 250.723C505.24 250.627 504.976 250.493 504.675 250.319C504.379 250.142 504.144 249.964 503.971 249.786C503.802 249.608 503.656 249.383 503.533 249.109C503.41 248.831 503.349 248.528 503.349 248.2C503.349 247.343 503.702 246.658 504.408 246.143C505.115 245.623 505.967 245.363 506.965 245.363C509.139 245.363 510.417 246.441 510.8 248.597H509.118C509.063 248.141 508.854 247.742 508.489 247.4C508.125 247.059 507.63 246.888 507.006 246.888C506.523 246.888 506.104 246.999 505.748 247.223C505.393 247.446 505.215 247.749 505.215 248.132C505.215 248.291 505.258 248.444 505.345 248.59C505.436 248.731 505.534 248.85 505.639 248.945C505.748 249.036 505.919 249.141 506.151 249.26C506.384 249.374 506.571 249.46 506.712 249.52C506.853 249.574 507.076 249.663 507.382 249.786C508.416 250.196 509.12 250.527 509.494 250.777C510.333 251.356 510.754 252.113 510.759 253.047C510.759 254.036 510.39 254.799 509.651 255.337C508.913 255.87 507.993 256.137 506.89 256.137ZM518.805 252.124C518.805 252.302 518.791 252.502 518.764 252.726H513.384C513.429 253.304 513.632 253.765 513.992 254.106C514.352 254.444 514.781 254.612 515.277 254.612C516.184 254.612 516.795 254.268 517.109 253.58H518.647C518.534 254.273 518.187 254.861 517.608 255.344C517.034 255.827 516.253 256.068 515.264 256.068C514.152 256.068 513.254 255.701 512.57 254.968C511.891 254.229 511.552 253.291 511.552 252.151C511.552 250.994 511.88 250.05 512.536 249.321C513.197 248.592 514.106 248.228 515.264 248.228C516.357 248.228 517.221 248.581 517.854 249.287C518.488 249.993 518.805 250.939 518.805 252.124ZM515.25 249.711C514.735 249.711 514.323 249.861 514.013 250.162C513.707 250.463 513.514 250.873 513.432 251.393H516.986C516.836 250.271 516.257 249.711 515.25 249.711ZM520.186 256V245.5H521.949V256H520.186ZM530.672 252.124C530.672 252.302 530.658 252.502 530.631 252.726H525.251C525.297 253.304 525.499 253.765 525.859 254.106C526.219 254.444 526.648 254.612 527.145 254.612C528.051 254.612 528.662 254.268 528.977 253.58H530.515C530.401 254.273 530.054 254.861 529.476 255.344C528.901 255.827 528.12 256.068 527.131 256.068C526.019 256.068 525.121 255.701 524.438 254.968C523.758 254.229 523.419 253.291 523.419 252.151C523.419 250.994 523.747 250.05 524.403 249.321C525.064 248.592 525.973 248.228 527.131 248.228C528.225 248.228 529.088 248.581 529.722 249.287C530.355 249.993 530.672 250.939 530.672 252.124ZM527.117 249.711C526.602 249.711 526.19 249.861 525.88 250.162C525.575 250.463 525.381 250.873 525.299 251.393H528.854C528.703 250.271 528.124 249.711 527.117 249.711ZM535.02 256.068C533.908 256.068 533.014 255.704 532.34 254.975C531.67 254.241 531.335 253.295 531.335 252.138C531.335 250.98 531.67 250.039 532.34 249.314C533.014 248.59 533.908 248.228 535.02 248.228C535.653 248.228 536.209 248.321 536.688 248.508C537.171 248.695 537.549 248.943 537.822 249.253C538.1 249.558 538.308 249.875 538.444 250.203C538.586 250.531 538.674 250.868 538.711 251.215H537.022C536.977 250.823 536.779 250.49 536.428 250.217C536.077 249.939 535.658 249.8 535.17 249.8C534.546 249.8 534.062 250.012 533.721 250.436C533.379 250.859 533.208 251.427 533.208 252.138C533.208 252.84 533.381 253.407 533.728 253.84C534.074 254.273 534.559 254.489 535.184 254.489C535.648 254.489 536.052 254.343 536.394 254.052C536.735 253.756 536.945 253.411 537.022 253.02H538.697C538.652 253.384 538.558 253.733 538.417 254.065C538.28 254.394 538.077 254.717 537.809 255.036C537.544 255.351 537.171 255.601 536.688 255.788C536.209 255.975 535.653 256.068 535.02 256.068ZM543.448 256.014C542.993 256.014 542.614 255.991 542.313 255.945C542.017 255.9 541.721 255.797 541.425 255.638C541.133 255.478 540.914 255.228 540.769 254.886C540.627 254.544 540.557 254.104 540.557 253.566V249.786H539.278V248.275H540.557V245.5H542.334V248.275H544.316V249.786H542.32V253.423C542.32 253.797 542.409 254.065 542.587 254.229C542.769 254.394 543.056 254.476 543.448 254.476H544.378V256.014H543.448ZM556.443 247.079H553.401V256H551.61V247.079H548.562V245.5H556.443V247.079ZM562.186 254.961C561.447 255.717 560.513 256.096 559.383 256.096C558.257 256.096 557.327 255.717 556.594 254.961C555.86 254.2 555.493 253.259 555.493 252.138C555.493 251.017 555.86 250.076 556.594 249.314C557.327 248.553 558.257 248.173 559.383 248.173C560.513 248.173 561.447 248.553 562.186 249.314C562.924 250.076 563.293 251.017 563.293 252.138C563.293 253.259 562.924 254.2 562.186 254.961ZM557.934 253.771C558.307 254.204 558.793 254.421 559.39 254.421C559.987 254.421 560.472 254.202 560.846 253.765C561.219 253.323 561.406 252.78 561.406 252.138C561.406 251.491 561.217 250.946 560.839 250.504C560.461 250.062 559.978 249.841 559.39 249.841C558.793 249.841 558.307 250.06 557.934 250.497C557.56 250.935 557.373 251.481 557.373 252.138C557.373 252.789 557.56 253.334 557.934 253.771ZM564.407 256V245.5H566.321V251.215L568.673 248.303H570.662L567.695 251.844L571.011 256H568.98L566.321 252.637V256H564.407ZM578.715 252.124C578.715 252.302 578.701 252.502 578.674 252.726H573.294C573.34 253.304 573.542 253.765 573.902 254.106C574.262 254.444 574.691 254.612 575.188 254.612C576.094 254.612 576.705 254.268 577.02 253.58H578.558C578.444 254.273 578.097 254.861 577.519 255.344C576.944 255.827 576.163 256.068 575.174 256.068C574.062 256.068 573.164 255.701 572.48 254.968C571.801 254.229 571.462 253.291 571.462 252.151C571.462 250.994 571.79 250.05 572.446 249.321C573.107 248.592 574.016 248.228 575.174 248.228C576.268 248.228 577.131 248.581 577.765 249.287C578.398 249.993 578.715 250.939 578.715 252.124ZM575.16 249.711C574.645 249.711 574.233 249.861 573.923 250.162C573.618 250.463 573.424 250.873 573.342 251.393H576.896C576.746 250.271 576.167 249.711 575.16 249.711ZM584.136 248.2C585.015 248.2 585.703 248.449 586.2 248.945C586.701 249.438 586.952 250.128 586.952 251.017V256H585.045V251.242C585.045 250.805 584.92 250.47 584.669 250.237C584.418 250 584.061 249.882 583.596 249.882C583.09 249.882 582.65 250.019 582.276 250.292C581.903 250.561 581.716 250.91 581.716 251.338V256H579.795V248.303H581.504L581.634 249.308C581.912 248.97 582.276 248.701 582.728 248.501C583.183 248.3 583.653 248.2 584.136 248.2Z" fill="white"/>
<path d="M600 250L604 254L608 250" stroke="white" stroke-width="1.5" stroke-linecap="round" stroke-linejoin="round"/>
<rect x="40" y="272" width="576" height="64" rx="12" fill="#192134"/>
<path d="M317.24 308.137C315.969 308.137 314.998 307.64 314.328 306.646C313.658 305.653 313.323 304.354 313.323 302.75C313.323 301.155 313.665 299.858 314.349 298.86C315.037 297.862 316.001 297.363 317.24 297.363C318.63 297.363 319.646 297.849 320.289 298.819C320.936 299.79 321.26 301.1 321.26 302.75C321.26 304.4 320.936 305.71 320.289 306.681C319.646 307.651 318.63 308.137 317.24 308.137ZM317.254 307.077C319.122 307.077 320.057 305.635 320.057 302.75C320.057 299.865 319.122 298.423 317.254 298.423C316.365 298.423 315.688 298.822 315.224 299.619C314.759 300.417 314.526 301.46 314.526 302.75C314.526 304.058 314.75 305.104 315.196 305.888C315.643 306.672 316.329 307.068 317.254 307.077ZM323.256 308.137C323.042 308.137 322.855 308.059 322.695 307.904C322.54 307.745 322.463 307.558 322.463 307.344C322.463 307.12 322.54 306.929 322.695 306.77C322.855 306.61 323.042 306.53 323.256 306.53C323.479 306.53 323.671 306.61 323.83 306.77C323.99 306.929 324.069 307.12 324.069 307.344C324.069 307.558 323.99 307.745 323.83 307.904C323.671 308.059 323.479 308.137 323.256 308.137ZM329.271 308.137C328 308.137 327.029 307.64 326.359 306.646C325.689 305.653 325.354 304.354 325.354 302.75C325.354 301.155 325.696 299.858 326.38 298.86C327.068 297.862 328.032 297.363 329.271 297.363C330.661 297.363 331.678 297.849 332.32 298.819C332.967 299.79 333.291 301.1 333.291 302.75C333.291 304.4 332.967 305.71 332.32 306.681C331.678 307.651 330.661 308.137 329.271 308.137ZM329.285 307.077C331.154 307.077 332.088 305.635 332.088 302.75C332.088 299.865 331.154 298.423 329.285 298.423C328.396 298.423 327.72 298.822 327.255 299.619C326.79 300.417 326.558 301.46 326.558 302.75C326.558 304.058 326.781 305.104 327.228 305.888C327.674 306.672 328.36 307.068 329.285 307.077ZM338.76 308.137C337.488 308.137 336.518 307.64 335.848 306.646C335.178 305.653 334.843 304.354 334.843 302.75C334.843 301.155 335.185 299.858 335.868 298.86C336.556 297.862 337.52 297.363 338.76 297.363C340.15 297.363 341.166 297.849 341.809 298.819C342.456 299.79 342.779 301.1 342.779 302.75C342.779 304.4 342.456 305.71 341.809 306.681C341.166 307.651 340.15 308.137 338.76 308.137ZM338.773 307.077C340.642 307.077 341.576 305.635 341.576 302.75C341.576 299.865 340.642 298.423 338.773 298.423C337.885 298.423 337.208 298.822 336.743 299.619C336.278 300.417 336.046 301.46 336.046 302.75C336.046 304.058 336.269 305.104 336.716 305.888C337.162 306.672 337.848 307.068 338.773 307.077Z" fill="#9B9B9B"/>
<path d="M45.4551 354.283C45.998 354.404 46.4375 354.678 46.7734 355.104C47.1094 355.525 47.2773 356.027 47.2773 356.609C47.2773 357.305 47.0391 357.877 46.5625 358.326C46.0859 358.775 45.4961 359 44.793 359H40.7383V350H44.2773C44.9883 350 45.584 350.223 46.0645 350.668C46.5449 351.109 46.7852 351.68 46.7852 352.379C46.7852 352.875 46.6621 353.293 46.416 353.633C46.1738 353.969 45.8535 354.186 45.4551 354.283ZM45.7188 352.496C45.7188 352.062 45.5664 351.695 45.2617 351.395C44.957 351.09 44.5938 350.938 44.1719 350.938H41.793V353.938H44.1719C44.6133 353.938 44.9805 353.805 45.2734 353.539C45.5703 353.27 45.7188 352.922 45.7188 352.496ZM44.6641 358.051C45.0977 358.051 45.4629 357.9 45.7598 357.6C46.0605 357.295 46.2109 356.926 46.2109 356.492C46.2109 356.059 46.0586 355.67 45.7539 355.326C45.4492 354.982 45.0859 354.811 44.6641 354.811H41.793V358.051H44.6641ZM50.1602 359.059C49.5195 359.059 48.9941 358.881 48.584 358.525C48.1777 358.17 47.9746 357.709 47.9746 357.143C47.9746 356.541 48.1992 356.053 48.6484 355.678C49.0977 355.299 49.7773 355.078 50.6875 355.016L52.2988 354.91V354.693C52.2988 354.205 52.1582 353.838 51.877 353.592C51.5957 353.342 51.207 353.217 50.7109 353.217C50.2695 353.217 49.9043 353.34 49.6152 353.586C49.3301 353.828 49.1641 354.148 49.1172 354.547H48.1211C48.1836 353.922 48.4375 353.395 48.8828 352.965C49.3281 352.531 49.9551 352.314 50.7637 352.314C51.5566 352.314 52.1797 352.525 52.6328 352.947C53.0898 353.365 53.3184 353.955 53.3184 354.717C53.3184 355.037 53.3203 355.393 53.3242 355.783C53.3281 356.174 53.3301 356.506 53.3301 356.779C53.3301 357.053 53.3301 357.205 53.3301 357.236C53.3301 357.572 53.3672 357.809 53.4414 357.945C53.5195 358.082 53.6465 358.146 53.8223 358.139V359C53.7324 359 53.6074 358.992 53.4473 358.977C52.8535 358.879 52.498 358.574 52.3809 358.062C52.2051 358.344 51.9102 358.58 51.4961 358.771C51.0859 358.963 50.6406 359.059 50.1602 359.059ZM50.3184 358.174C50.8066 358.174 51.248 358.029 51.6426 357.74C52.0371 357.451 52.2559 357.119 52.2988 356.744V355.736L50.7871 355.854C49.6035 355.951 49.0117 356.371 49.0117 357.113C49.0117 357.434 49.1426 357.691 49.4043 357.887C49.6699 358.078 49.9746 358.174 50.3184 358.174ZM55.1992 359V350H56.2422V359H55.1992ZM59.8281 359.059C59.1875 359.059 58.6621 358.881 58.252 358.525C57.8457 358.17 57.6426 357.709 57.6426 357.143C57.6426 356.541 57.8672 356.053 58.3164 355.678C58.7656 355.299 59.4453 355.078 60.3555 355.016L61.9668 354.91V354.693C61.9668 354.205 61.8262 353.838 61.5449 353.592C61.2637 353.342 60.875 353.217 60.3789 353.217C59.9375 353.217 59.5723 353.34 59.2832 353.586C58.998 353.828 58.832 354.148 58.7852 354.547H57.7891C57.8516 353.922 58.1055 353.395 58.5508 352.965C58.9961 352.531 59.623 352.314 60.4316 352.314C61.2246 352.314 61.8477 352.525 62.3008 352.947C62.7578 353.365 62.9863 353.955 62.9863 354.717C62.9863 355.037 62.9883 355.393 62.9922 355.783C62.9961 356.174 62.998 356.506 62.998 356.779C62.998 357.053 62.998 357.205 62.998 357.236C62.998 357.572 63.0352 357.809 63.1094 357.945C63.1875 358.082 63.3145 358.146 63.4902 358.139V359C63.4004 359 63.2754 358.992 63.1152 358.977C62.5215 358.879 62.166 358.574 62.0488 358.062C61.873 358.344 61.5781 358.58 61.1641 358.771C60.7539 358.963 60.3086 359.059 59.8281 359.059ZM59.9863 358.174C60.4746 358.174 60.916 358.029 61.3105 357.74C61.7051 357.451 61.9238 357.119 61.9668 356.744V355.736L60.4551 355.854C59.2715 355.951 58.6797 356.371 58.6797 357.113C58.6797 357.434 58.8105 357.691 59.0723 357.887C59.3379 358.078 59.6426 358.174 59.9863 358.174ZM67.8203 352.326C68.5391 352.326 69.1152 352.545 69.5488 352.982C69.9824 353.42 70.1992 354.006 70.1992 354.74V359H69.0918V354.846C69.0918 354.381 68.9492 354.01 68.6641 353.732C68.3828 353.451 68.0059 353.311 67.5332 353.311C67.0215 353.311 66.5762 353.461 66.1973 353.762C65.8223 354.062 65.6348 354.441 65.6348 354.898V359H64.5332V352.402H65.4941L65.5996 353.387C65.8301 353.066 66.1465 352.811 66.5488 352.619C66.9551 352.424 67.3789 352.326 67.8203 352.326ZM74.2773 359.07C73.3672 359.07 72.625 358.75 72.0508 358.109C71.4766 357.465 71.1895 356.654 71.1895 355.678C71.1895 354.701 71.4727 353.9 72.0391 353.275C72.6094 352.65 73.3555 352.338 74.2773 352.338C75.1172 352.338 75.7969 352.559 76.3164 353C76.8359 353.441 77.1348 353.977 77.2129 354.605H76.2051C76.1426 354.223 75.9375 353.904 75.5898 353.65C75.2422 353.393 74.832 353.264 74.3594 353.264C73.7188 353.264 73.2109 353.482 72.8359 353.92C72.4609 354.354 72.2734 354.939 72.2734 355.678C72.2734 356.42 72.4629 357.014 72.8418 357.459C73.2207 357.9 73.7305 358.121 74.3711 358.121C74.8281 358.121 75.2207 357.992 75.5488 357.734C75.877 357.473 76.0957 357.143 76.2051 356.744H77.1895C77.0605 357.393 76.748 357.943 76.252 358.396C75.7598 358.846 75.1016 359.07 74.2773 359.07ZM83.8926 355.666C83.8926 355.736 83.8848 355.867 83.8691 356.059H78.9297C78.9531 356.715 79.1602 357.23 79.5508 357.605C79.9414 357.977 80.3887 358.166 80.8926 358.174C81.373 358.182 81.7715 358.082 82.0879 357.875C82.4043 357.664 82.6191 357.383 82.7324 357.031H83.6816C83.6504 357.254 83.5762 357.477 83.459 357.699C83.3418 357.918 83.1797 358.137 82.9727 358.355C82.7656 358.57 82.4844 358.742 82.1289 358.871C81.7773 358.996 81.3828 359.059 80.9453 359.059C80.0234 359.051 79.2793 358.73 78.7129 358.098C78.1504 357.461 77.8691 356.666 77.8691 355.713C77.8691 354.736 78.1426 353.932 78.6895 353.299C79.2402 352.666 79.9883 352.35 80.9336 352.35C81.8359 352.35 82.5547 352.654 83.0898 353.264C83.625 353.873 83.8926 354.674 83.8926 355.666ZM80.9336 353.264C80.3672 353.264 79.9121 353.441 79.5684 353.797C79.2285 354.152 79.0234 354.631 78.9531 355.232H82.8613C82.7988 354.631 82.6016 354.152 82.2695 353.797C81.9375 353.441 81.4922 353.264 80.9336 353.264ZM86.002 354.248C85.8184 354.248 85.6582 354.182 85.5215 354.049C85.3848 353.916 85.3164 353.754 85.3164 353.562C85.3164 353.379 85.3848 353.221 85.5215 353.088C85.6582 352.951 85.8184 352.883 86.002 352.883C86.1855 352.883 86.3477 352.951 86.4883 353.088C86.6289 353.221 86.6992 353.379 86.6992 353.562C86.6992 353.754 86.6309 353.916 86.4941 354.049C86.3574 354.182 86.1934 354.248 86.002 354.248ZM86.4883 358.918C86.3477 359.051 86.1855 359.117 86.002 359.117C85.8184 359.117 85.6582 359.051 85.5215 358.918C85.3848 358.781 85.3164 358.621 85.3164 358.438C85.3164 358.246 85.3848 358.082 85.5215 357.945C85.6582 357.809 85.8184 357.74 86.002 357.74C86.1855 357.74 86.3477 357.809 86.4883 357.945C86.6289 358.082 86.6992 358.246 86.6992 358.438C86.6992 358.621 86.6289 358.781 86.4883 358.918Z" fill="#EEEFFB"/>
<path d="M96.2773 359.117C95.1875 359.117 94.3555 358.691 93.7812 357.84C93.207 356.988 92.9199 355.875 92.9199 354.5C92.9199 353.133 93.2129 352.021 93.7988 351.166C94.3887 350.311 95.2148 349.883 96.2773 349.883C97.4688 349.883 98.3398 350.299 98.8906 351.131C99.4453 351.963 99.7227 353.086 99.7227 354.5C99.7227 355.914 99.4453 357.037 98.8906 357.869C98.3398 358.701 97.4688 359.117 96.2773 359.117ZM96.2891 358.209C97.8906 358.209 98.6914 356.973 98.6914 354.5C98.6914 352.027 97.8906 350.791 96.2891 350.791C95.5273 350.791 94.9473 351.133 94.5488 351.816C94.1504 352.5 93.9512 353.395 93.9512 354.5C93.9512 355.621 94.1426 356.518 94.5254 357.189C94.9082 357.861 95.4961 358.201 96.2891 358.209ZM101.434 359.117C101.25 359.117 101.09 359.051 100.953 358.918C100.82 358.781 100.754 358.621 100.754 358.438C100.754 358.246 100.82 358.082 100.953 357.945C101.09 357.809 101.25 357.74 101.434 357.74C101.625 357.74 101.789 357.809 101.926 357.945C102.062 358.082 102.131 358.246 102.131 358.438C102.131 358.621 102.062 358.781 101.926 358.918C101.789 359.051 101.625 359.117 101.434 359.117ZM106.59 359.117C105.5 359.117 104.668 358.691 104.094 357.84C103.52 356.988 103.232 355.875 103.232 354.5C103.232 353.133 103.525 352.021 104.111 351.166C104.701 350.311 105.527 349.883 106.59 349.883C107.781 349.883 108.652 350.299 109.203 351.131C109.758 351.963 110.035 353.086 110.035 354.5C110.035 355.914 109.758 357.037 109.203 357.869C108.652 358.701 107.781 359.117 106.59 359.117ZM106.602 358.209C108.203 358.209 109.004 356.973 109.004 354.5C109.004 352.027 108.203 350.791 106.602 350.791C105.84 350.791 105.26 351.133 104.861 351.816C104.463 352.5 104.264 353.395 104.264 354.5C104.264 355.621 104.455 356.518 104.838 357.189C105.221 357.861 105.809 358.201 106.602 358.209ZM114.723 359.117C113.633 359.117 112.801 358.691 112.227 357.84C111.652 356.988 111.365 355.875 111.365 354.5C111.365 353.133 111.658 352.021 112.244 351.166C112.834 350.311 113.66 349.883 114.723 349.883C115.914 349.883 116.785 350.299 117.336 351.131C117.891 351.963 118.168 353.086 118.168 354.5C118.168 355.914 117.891 357.037 117.336 357.869C116.785 358.701 115.914 359.117 114.723 359.117ZM114.734 358.209C116.336 358.209 117.137 356.973 117.137 354.5C117.137 352.027 116.336 350.791 114.734 350.791C113.973 350.791 113.393 351.133 112.994 351.816C112.596 352.5 112.396 353.395 112.396 354.5C112.396 355.621 112.588 356.518 112.971 357.189C113.354 357.861 113.941 358.201 114.734 358.209Z" fill="#EEEFFB"/>
<path d="M137.656 350V359H135.857V352.543L133.719 359H131.85L129.676 352.543V359H127.865V350H130.408L132.758 356.674L135.137 350H137.656ZM144.934 357.178H141.025L140.34 359H138.383L141.992 350H144.025L147.635 359H145.678L144.934 357.178ZM144.418 355.613L143.018 351.834L141.553 355.613H144.418ZM153.77 359L151.754 355.854L149.738 359H147.676L150.781 354.383L147.846 350H149.896L151.754 352.895L153.629 350H155.68L152.727 354.365L155.838 359H153.77Z" fill="#3D6EFF"/>
<rect x="40" y="408" width="576" height="56" rx="12" fill="#366CF0"/>
<path d="M272.508 440.156C270.799 440.156 269.396 439.562 268.297 438.375C267.203 437.188 266.656 435.729 266.656 434C266.656 432.26 267.203 430.799 268.297 429.617C269.391 428.435 270.794 427.844 272.508 427.844C274.044 427.844 275.32 428.294 276.336 429.195C277.357 430.096 277.911 431.271 278 432.719H275.727C275.643 432.047 275.331 431.451 274.789 430.93C274.253 430.404 273.492 430.141 272.508 430.141C271.409 430.141 270.539 430.508 269.898 431.242C269.263 431.971 268.945 432.891 268.945 434C268.945 435.12 269.263 436.047 269.898 436.781C270.539 437.51 271.409 437.875 272.508 437.875C273.445 437.875 274.195 437.615 274.758 437.094C275.32 436.568 275.643 435.99 275.727 435.359H278C277.896 436.641 277.307 437.76 276.234 438.719C275.167 439.677 273.924 440.156 272.508 440.156ZM287.25 438.812C286.391 439.677 285.305 440.109 283.992 440.109C282.68 440.109 281.594 439.677 280.734 438.812C279.875 437.943 279.445 436.867 279.445 435.586C279.445 434.305 279.875 433.229 280.734 432.359C281.594 431.49 282.68 431.055 283.992 431.055C285.305 431.055 286.391 431.49 287.25 432.359C288.109 433.229 288.539 434.305 288.539 435.586C288.539 436.867 288.109 437.943 287.25 438.812ZM283.992 437.891C284.591 437.891 285.081 437.669 285.461 437.227C285.846 436.784 286.039 436.237 286.039 435.586C286.039 434.935 285.846 434.385 285.461 433.938C285.081 433.49 284.591 433.266 283.992 433.266C283.383 433.266 282.888 433.487 282.508 433.93C282.133 434.372 281.945 434.924 281.945 435.586C281.945 436.247 282.133 436.797 282.508 437.234C282.888 437.672 283.383 437.891 283.992 437.891ZM294.969 431.086C295.995 431.086 296.792 431.367 297.359 431.93C297.932 432.487 298.219 433.279 298.219 434.305V440H295.672V434.609C295.672 433.734 295.188 433.297 294.219 433.297C293.698 433.297 293.242 433.43 292.852 433.695C292.461 433.961 292.266 434.312 292.266 434.75V440H289.719V431.203H292.008L292.156 432.273C292.474 431.909 292.888 431.62 293.398 431.406C293.914 431.193 294.438 431.086 294.969 431.086ZM304.875 431.086C305.901 431.086 306.698 431.367 307.266 431.93C307.839 432.487 308.125 433.279 308.125 434.305V440H305.578V434.609C305.578 433.734 305.094 433.297 304.125 433.297C303.604 433.297 303.148 433.43 302.758 433.695C302.367 433.961 302.172 434.312 302.172 434.75V440H299.625V431.203H301.914L302.062 432.273C302.38 431.909 302.794 431.62 303.305 431.406C303.82 431.193 304.344 431.086 304.875 431.086ZM317.516 435.586C317.516 435.82 317.5 436.07 317.469 436.336H311.547C311.62 436.914 311.831 437.367 312.18 437.695C312.529 438.018 312.964 438.18 313.484 438.18C314.401 438.18 315.036 437.836 315.391 437.148H317.406C317.255 438.003 316.836 438.706 316.148 439.258C315.461 439.805 314.552 440.078 313.422 440.078C312.141 440.078 311.099 439.661 310.297 438.828C309.5 437.99 309.102 436.914 309.102 435.602C309.102 434.279 309.482 433.201 310.242 432.367C311.008 431.534 312.073 431.117 313.438 431.117C314.698 431.117 315.693 431.518 316.422 432.32C317.151 433.122 317.516 434.211 317.516 435.586ZM313.406 433.039C312.427 433.039 311.823 433.568 311.594 434.625H315.102C314.93 433.568 314.365 433.039 313.406 433.039ZM322.453 440.078C321.172 440.078 320.141 439.664 319.359 438.836C318.583 438.003 318.195 436.919 318.195 435.586C318.195 434.253 318.581 433.174 319.352 432.352C320.128 431.529 321.161 431.117 322.453 431.117C323.104 431.117 323.685 431.201 324.195 431.367C324.706 431.534 325.115 431.74 325.422 431.984C325.734 432.229 325.997 432.523 326.211 432.867C326.424 433.206 326.573 433.523 326.656 433.82C326.745 434.112 326.805 434.411 326.836 434.719H324.609C324.557 434.302 324.349 433.943 323.984 433.641C323.625 433.339 323.188 433.188 322.672 433.188C322.031 433.188 321.542 433.406 321.203 433.844C320.87 434.276 320.703 434.857 320.703 435.586C320.703 436.299 320.87 436.878 321.203 437.32C321.542 437.763 322.031 437.984 322.672 437.984C323.172 437.984 323.604 437.823 323.969 437.5C324.333 437.172 324.547 436.805 324.609 436.398H326.836C326.805 436.727 326.745 437.044 326.656 437.352C326.573 437.654 326.424 437.977 326.211 438.32C325.997 438.659 325.734 438.956 325.422 439.211C325.115 439.461 324.706 439.669 324.195 439.836C323.685 439.997 323.104 440.078 322.453 440.078ZM332.57 440.016C332.102 440.016 331.719 440.005 331.422 439.984C331.13 439.964 330.807 439.898 330.453 439.789C330.104 439.674 329.831 439.513 329.633 439.305C329.435 439.096 329.266 438.802 329.125 438.422C328.99 438.036 328.922 437.565 328.922 437.008V433.172H327.43V431.172H328.922V428H331.258V431.172H333.641V433.172H331.258V436.852C331.258 437.299 331.37 437.607 331.594 437.773C331.818 437.935 332.143 438.016 332.57 438.016H333.672V440.016H332.57ZM356.352 428L353.039 440H350.414L347.453 432L344.812 440H342.203L338.555 428H341.164L343.602 437.359L346.273 428H348.656L351.633 437.375L353.758 428H356.352ZM358.891 440.125C358.026 440.125 357.331 439.896 356.805 439.438C356.284 438.979 356.023 438.336 356.023 437.508C356.023 436.727 356.367 436.094 357.055 435.609C357.747 435.125 358.604 434.833 359.625 434.734L361.352 434.578V434.43C361.352 433.94 361.24 433.589 361.016 433.375C360.792 433.161 360.456 433.055 360.008 433.055C358.961 433.055 358.396 433.503 358.312 434.398H356.266C356.328 433.451 356.667 432.669 357.281 432.055C357.896 431.44 358.828 431.133 360.078 431.133C361.198 431.133 362.073 431.406 362.703 431.953C363.339 432.495 363.656 433.326 363.656 434.445V437.086C363.656 437.789 363.891 438.141 364.359 438.141V440C364.307 440 364.208 440.003 364.062 440.008C363.922 440.013 363.81 440.016 363.727 440.016C363.716 440.016 363.643 440.016 363.508 440.016C363.372 440.016 363.289 440.016 363.258 440.016C363.227 440.016 363.151 440.013 363.031 440.008C362.917 440.003 362.839 439.995 362.797 439.984C362.755 439.974 362.68 439.958 362.57 439.938C362.466 439.917 362.388 439.893 362.336 439.867C362.289 439.836 362.221 439.797 362.133 439.75C362.049 439.703 361.982 439.651 361.93 439.594C361.878 439.536 361.82 439.471 361.758 439.398C361.701 439.32 361.651 439.232 361.609 439.133C361.365 439.43 360.995 439.669 360.5 439.852C360.005 440.034 359.469 440.125 358.891 440.125ZM359.562 438.305C360.151 438.305 360.747 438.044 361.352 437.523V436.156L360.156 436.32C359.057 436.471 358.508 436.818 358.508 437.359C358.508 437.646 358.607 437.875 358.805 438.047C359.003 438.219 359.255 438.305 359.562 438.305ZM365.805 440V428H368.141V440H365.805ZM370.086 440V428H372.422V440H370.086ZM382.438 435.586C382.438 435.82 382.422 436.07 382.391 436.336H376.469C376.542 436.914 376.753 437.367 377.102 437.695C377.451 438.018 377.885 438.18 378.406 438.18C379.323 438.18 379.958 437.836 380.312 437.148H382.328C382.177 438.003 381.758 438.706 381.07 439.258C380.383 439.805 379.474 440.078 378.344 440.078C377.062 440.078 376.021 439.661 375.219 438.828C374.422 437.99 374.023 436.914 374.023 435.602C374.023 434.279 374.404 433.201 375.164 432.367C375.93 431.534 376.995 431.117 378.359 431.117C379.62 431.117 380.615 431.518 381.344 432.32C382.073 433.122 382.438 434.211 382.438 435.586ZM378.328 433.039C377.349 433.039 376.745 433.568 376.516 434.625H380.023C379.852 433.568 379.286 433.039 378.328 433.039ZM388.352 440.016C387.883 440.016 387.5 440.005 387.203 439.984C386.911 439.964 386.589 439.898 386.234 439.789C385.885 439.674 385.612 439.513 385.414 439.305C385.216 439.096 385.047 438.802 384.906 438.422C384.771 438.036 384.703 437.565 384.703 437.008V433.172H383.211V431.172H384.703V428H387.039V431.172H389.422V433.172H387.039V436.852C387.039 437.299 387.151 437.607 387.375 437.773C387.599 437.935 387.924 438.016 388.352 438.016H389.453V440.016H388.352Z" fill="white"/>
</svg>
