<?xml version="1.0" encoding="UTF-8"?>
<svg version="1.1" xmlns="http://www.w3.org/2000/svg" width="421" height="421">
<path d="M0 0 C2.50330252 -0.10214796 4.71266073 -0.02576458 7.1882782 0.21459961 C7.90516805 0.27251395 8.62205791 0.3304283 9.3606717 0.39009762 C11.57587332 0.57507976 13.78763934 0.78385902 16 1 C17.24080637 1.11771759 18.48161274 1.23543518 19.7600193 1.35671997 C23.50571612 1.73456892 27.24643835 2.14563253 30.98754883 2.56640625 C32.40370746 2.72288188 33.81990231 2.87903001 35.23612976 3.03488159 C39.02491756 3.45282946 42.81316257 3.87550951 46.60129762 4.29932785 C50.58473782 4.74434018 54.56860913 5.1854632 58.55241394 5.62719727 C65.22380532 6.36756148 71.89484197 7.11105764 78.56567383 7.85644531 C86.27600857 8.7179433 93.98690383 9.57427913 101.69810849 10.42795277 C109.14046871 11.25199243 116.58241244 12.07973671 124.02417564 12.90914917 C127.18386158 13.26123595 130.34369002 13.61200183 133.50364113 13.96170044 C137.21328721 14.37239302 140.9225588 14.78631587 144.63156319 15.2027626 C146.64281359 15.42780159 148.65442604 15.64959743 150.66604614 15.87130737 C151.85868576 16.00586334 153.05132538 16.14041931 154.28010559 16.27905273 C155.31846463 16.39482162 156.35682367 16.51059052 157.42664814 16.62986755 C162.46342965 17.35432202 162.46342965 17.35432202 164.40234375 19.6875 C164.90894531 20.450625 165.41554688 21.21375 165.9375 22 C166.55238281 22.9075 167.16726563 23.815 167.80078125 24.75 C168.52652344 25.8225 169.25226563 26.895 170 28 C171.86290336 30.6752282 173.74342212 33.33788415 175.625 36 C176.13675781 36.72590332 176.64851563 37.45180664 177.17578125 38.19970703 C180.88778424 43.45571126 184.65444059 48.67001238 188.4375 53.875 C192.98588784 60.13568996 197.40458589 66.47190076 201.75 72.875 C205.91689542 79.01400447 210.18660978 85.01101153 214.6875 90.91015625 C218.09949956 95.46909485 221.35691835 100.1337007 224.62915039 104.79345703 C227.38763919 108.71982779 230.16526572 112.62802407 233 116.5 C237.89756158 123.19873093 242.65937699 129.99284475 247.43554688 136.77832031 C249.4584991 139.65111451 251.48452975 142.52172413 253.51196289 145.39135742 C254.49989365 146.79131771 255.48607529 148.19251403 256.47045898 149.5949707 C259.09423432 153.32855492 261.75067269 157.03276574 264.45703125 160.70703125 C265.29911133 161.86332031 265.29911133 161.86332031 266.15820312 163.04296875 C267.2390537 164.52578855 268.3298282 166.00143888 269.43164062 167.46875 C269.91439453 168.13519531 270.39714844 168.80164063 270.89453125 169.48828125 C271.32612549 170.07134033 271.75771973 170.65439941 272.20239258 171.25512695 C273 173 273 173 272.85961914 174.86328125 C271.69833728 177.74983019 270.09716792 180.12265874 268.3515625 182.69921875 C267.79896255 183.52076195 267.79896255 183.52076195 267.23519897 184.35890198 C266.03684734 186.13856608 264.8308557 187.91291414 263.625 189.6875 C262.38157363 191.53122227 261.1403372 193.37640452 259.89935303 195.22177124 C259.0769201 196.44469271 258.25388278 197.66720793 257.43023682 198.88931274 C254.23072028 203.6405258 251.0934832 208.42900968 248 213.25 C242.6883653 221.51109771 237.23930835 229.6763931 231.77050781 237.83398438 C227.12306486 244.77013635 222.51665456 251.72786764 218 258.75 C213.05774352 266.42746783 208.00639237 274.0308762 202.9375 281.625 C202.54433594 282.2141922 202.15117187 282.8033844 201.74609375 283.41043091 C198.16241692 288.7799401 194.57582 294.14744528 190.97265625 299.50390625 C186.88869356 305.58321196 182.91482085 311.70840665 179.0625 317.9375 C175.50519572 323.66361693 171.87707772 329.33677314 168.125 334.9375 C167.67261963 335.63029053 167.22023926 336.32308105 166.75415039 337.03686523 C163.52834755 341.78862144 163.52834755 341.78862144 161.20582581 342.71780396 C158.45565233 343.06963957 156.01959377 342.85292219 153.26147461 342.55029297 C151.51559807 342.36387489 151.51559807 342.36387489 149.73445129 342.1736908 C147.83755806 341.96009666 147.83755806 341.96009666 145.90234375 341.7421875 C144.56892626 341.59699706 143.23544382 341.45240192 141.90190125 341.30836487 C138.32283043 340.9198828 134.74480757 340.52244061 131.16693878 340.12305832 C128.18328718 339.79108257 125.19908585 339.46420924 122.21486664 339.13738155 C108.77910132 337.66567905 95.34675099 336.16305319 81.91796875 334.62890625 C81.03468903 334.52800186 80.1514093 334.42709747 79.24136353 334.32313538 C75.042853 333.84049954 70.84649939 333.34461242 66.65234375 332.82543945 C58.08541218 331.77233561 49.53040236 330.84992849 40.92669678 330.14616394 C36.23989992 329.75526009 31.55833494 329.31468236 26.87640381 328.86965942 C24.61409116 328.66759194 22.34960986 328.48828923 20.08355713 328.33370972 C1.44635284 327.05089188 1.44635284 327.05089188 -3.47094727 321.94580078 C-6.14690163 318.53961877 -8.05671629 314.86102267 -10 311 C-11.01611799 309.4934979 -12.05920739 308.00430989 -13.14453125 306.546875 C-14.0340067 305.2813572 -14.92333104 304.01573316 -15.8125 302.75 C-20.04337637 296.74160159 -24.31718802 290.76596451 -28.625 284.8125 C-29.17333496 284.05469238 -29.72166992 283.29688477 -30.28662109 282.51611328 C-30.82496582 281.77216309 -31.36331055 281.02821289 -31.91796875 280.26171875 C-38.63268674 270.98173477 -45.25685431 261.6430572 -51.8125 252.25 C-57.96006634 243.44364256 -64.2242669 234.72705758 -70.52880859 226.03271484 C-76.86226243 217.28191222 -83.09243056 208.45807519 -89.30859375 199.6237793 C-93.72166095 193.36508004 -98.20672341 187.15953927 -102.72387695 180.97558594 C-104.16450745 178.99407133 -105.5860587 177.00060528 -107 175 C-107.95712891 173.66195312 -107.95712891 173.66195312 -108.93359375 172.296875 C-110.33848285 169.27096002 -109.9578737 168.19123772 -109 165 C-107.61627571 162.59862555 -106.20535318 160.33080988 -104.66015625 158.0390625 C-104.21917099 157.3714389 -103.77818573 156.70381531 -103.32383728 156.01596069 C-101.91082051 153.88060214 -100.48689868 151.75277859 -99.0625 149.625 C-98.13924603 148.23355564 -97.21671342 146.84163236 -96.29492188 145.44921875 C-93.99082347 141.97293315 -91.67725897 138.50307678 -89.35995483 135.0355835 C-87.61129148 132.4181802 -85.86616497 129.79842862 -84.12097168 127.17871094 C-80.5761684 121.85822731 -77.0258705 116.54143144 -73.47265625 111.2265625 C-63.06834733 95.67805395 -63.06834733 95.67805395 -52.87524414 79.99072266 C-48.35036191 72.92801865 -43.66150075 65.97286227 -39 59 C-26.99446366 41.03421706 -15.00237765 23.06435848 -3.25488281 4.92822266 C-2.18104495 3.2781893 -1.09203238 1.63804857 0 0 Z " fill="#6C97F3" transform="translate(128,35)"/>
<path d="M0 0 C3.95926347 1.30507015 7.02485629 3.49771169 10.43359375 5.86328125 C12.0219129 6.94173404 13.61047099 8.01983497 15.19921875 9.09765625 C16.07771484 9.69771484 16.95621094 10.29777344 17.86132812 10.91601562 C23.01245651 14.4286141 28.18157259 17.91413081 33.35955811 21.38699341 C35.16577136 22.60129937 36.96696405 23.82280865 38.76806641 25.04467773 C39.89331916 25.80096903 41.01879735 26.55692507 42.14453125 27.3125 C43.1401709 27.98498779 44.13581055 28.65747559 45.16162109 29.3503418 C47.51967216 30.75381934 49.17299884 31.37712287 51.80859375 31.92578125 C54.0882785 33.22972544 56.28929348 34.57020515 58.49609375 35.98828125 C59.18324463 36.42382324 59.87039551 36.85936523 60.57836914 37.30810547 C62.99241135 38.84118891 65.4006125 40.38319675 67.80859375 41.92578125 C69.7199653 43.14596928 71.63142813 44.36601435 73.54296875 45.5859375 C77.76183416 48.28093067 81.97760343 50.98069227 86.19140625 53.68359375 C90.64118191 56.53784284 95.09437714 59.38658778 99.55078125 62.23046875 C100.65172119 62.93349121 101.75266113 63.63651367 102.88696289 64.36083984 C104.96893592 65.69014669 107.05141549 67.01866068 109.13452148 68.34619141 C112.03162187 70.19728531 114.92060453 72.06051115 117.80859375 73.92578125 C118.9176709 74.6321875 120.02674805 75.33859375 121.16943359 76.06640625 C122.26078613 76.7728125 123.35213867 77.47921875 124.4765625 78.20703125 C125.47324951 78.84705078 126.46993652 79.48707031 127.49682617 80.14648438 C129.80859375 81.92578125 129.80859375 81.92578125 130.80859375 84.92578125 C132.45900262 85.63173649 134.13120677 86.28656677 135.80859375 86.92578125 C138.71961571 88.5407747 141.54120291 90.2983368 144.37109375 92.05078125 C145.16306152 92.53780518 145.9550293 93.0248291 146.77099609 93.52661133 C153.21840995 97.51229723 159.55270352 101.6447897 165.80859375 105.92578125 C162.33935638 108.73835131 158.53437334 110.77179504 154.59375 112.83203125 C153.90099472 113.19800415 153.20823944 113.56397705 152.49449158 113.94104004 C150.28839488 115.10588418 148.07990299 116.26609015 145.87109375 117.42578125 C143.66623899 118.58618038 141.46192277 119.74758152 139.25840759 120.91052246 C137.89026367 121.63229691 136.52129629 122.35251335 135.15138245 123.07092285 C132.37406518 124.53375518 129.64843613 126.02433978 126.97436523 127.66992188 C124.80859375 128.92578125 124.80859375 128.92578125 122.80859375 128.92578125 C122.80859375 129.58578125 122.80859375 130.24578125 122.80859375 130.92578125 C126.64442498 128.95142936 130.47715153 126.97113669 134.30859375 124.98828125 C135.44449951 124.40087158 136.58040527 123.81346191 137.75073242 123.20825195 C144.94904043 119.4670093 152.0741467 115.63565579 159.03515625 111.46704102 C162.35378619 109.52764766 163.8371335 108.92578125 167.80859375 108.92578125 C170.03814924 127.40504451 171.50863744 145.88405931 172.7487793 164.45239258 C173.42941673 174.62245312 174.18360096 184.77210478 175.17773438 194.91723633 C175.81512624 201.55469195 176.19656385 208.19325109 176.46728516 214.85546875 C176.59114779 217.716378 176.71695302 220.48762121 177.30419922 223.29541016 C177.85852029 226.18614354 178.01942509 228.94179718 178.125 231.8828125 C178.16689453 232.99462891 178.20878906 234.10644531 178.25195312 235.25195312 C178.29126953 236.40244141 178.33058594 237.55292969 178.37109375 238.73828125 C178.41427734 239.90810547 178.45746094 241.07792969 178.50195312 242.28320312 C178.60777654 245.16395156 178.709862 248.04478248 178.80859375 250.92578125 C159.81383491 246.15893741 141.0382402 240.70430494 122.25177002 235.18701172 C118.29809646 234.02660523 114.34334505 232.86988488 110.38867188 231.71289062 C104.29677203 229.93017116 98.20529915 228.14600206 92.11425781 226.36035156 C67.44546777 219.12471052 67.44546777 219.12471052 42.69921875 212.16015625 C41.68601563 211.87914062 40.6728125 211.598125 39.62890625 211.30859375 C38.74477051 211.06512207 37.86063477 210.82165039 36.94970703 210.57080078 C34.80859375 209.92578125 34.80859375 209.92578125 32.80859375 208.92578125 C32.80859375 208.26578125 32.80859375 207.60578125 32.80859375 206.92578125 C32.20998535 206.81766113 31.61137695 206.70954102 30.99462891 206.59814453 C24.58399674 205.3855235 18.41263777 203.72947784 12.18359375 201.80078125 C11.27480469 201.52363281 10.36601563 201.24648438 9.4296875 200.9609375 C7.22131416 200.28680248 5.01436212 199.60838148 2.80859375 198.92578125 C6.94711732 195.3270651 11.33832076 192.90771304 16.18359375 190.42578125 C17.65032797 189.66650011 19.11648052 188.90609422 20.58203125 188.14453125 C21.63922363 187.59539062 21.63922363 187.59539062 22.71777344 187.03515625 C25.79137819 185.40432253 28.79951436 183.67247641 31.80859375 181.92578125 C20.71835875 187.08658367 9.72291371 192.40251839 -1.19140625 197.92578125 C-7.36960733 190.6525022 -13.05900006 183.09408327 -18.68408203 175.39135742 C-22.75989713 169.82636488 -26.93201622 164.35128326 -31.19140625 158.92578125 C-36.05080348 152.73204414 -40.78819775 146.46340073 -45.44140625 140.11328125 C-47.15489921 137.78076902 -48.86868414 135.44847157 -50.58251953 133.11621094 C-51.6315317 131.68802623 -52.67943738 130.25902793 -53.72607422 128.82910156 C-55.10066296 126.95804426 -56.48751342 125.09685898 -57.87890625 123.23828125 C-58.64589844 122.20316406 -59.41289063 121.16804688 -60.203125 120.1015625 C-60.85925781 119.38355469 -61.51539062 118.66554688 -62.19140625 117.92578125 C-63.18140625 117.92578125 -64.17140625 117.92578125 -65.19140625 117.92578125 C-66.19071309 116.56366875 -67.17429661 115.18635656 -68.06201172 113.74902344 C-69.24616802 111.83737638 -70.51483526 110.014349 -71.8203125 108.18359375 C-72.29307617 107.51706787 -72.76583984 106.85054199 -73.25292969 106.16381836 C-73.74825195 105.46651611 -74.24357422 104.76921387 -74.75390625 104.05078125 C-80.64751677 95.73087594 -86.43689942 87.34231388 -92.19140625 78.92578125 C-90.67288148 75.08632943 -88.41337887 73.2508707 -85.19140625 70.73828125 C-81.41589593 67.73458749 -77.7507963 64.68285131 -74.19140625 61.42578125 C-70.87151139 58.40295704 -67.49376513 55.50065964 -64.00390625 52.67578125 C-59.55288433 49.0710804 -55.1994202 45.37207858 -50.87890625 41.61328125 C-50.2454126 41.06220703 -49.61191895 40.51113281 -48.95922852 39.94335938 C-47.6730897 38.8241564 -46.38703837 37.70485288 -45.10107422 36.58544922 C-37.95749384 30.37705502 -30.79494753 24.19754153 -23.44140625 18.23828125 C-19.83048757 15.30806594 -16.32755323 12.29549618 -12.87890625 9.17578125 C-12.06421875 8.44101563 -11.24953125 7.70625 -10.41015625 6.94921875 C-9.06237738 5.72008239 -7.72568169 4.47844056 -6.41015625 3.21484375 C-2.82527256 -0.09568659 -2.82527256 -0.09568659 0 0 Z " fill="#4661E3" transform="translate(110.19140625,126.07421875)"/>
<path d="M0 0 C2.22955549 18.47926326 3.70004369 36.95827806 4.94018555 55.52661133 C5.62082298 65.69667187 6.37500721 75.84632353 7.36914062 85.99145508 C8.00653249 92.6289107 8.3879701 99.26746984 8.65869141 105.9296875 C8.78255404 108.79059675 8.90835927 111.56183996 9.49560547 114.36962891 C10.04992654 117.26036229 10.21083134 120.01601593 10.31640625 122.95703125 C10.37924805 124.62475586 10.37924805 124.62475586 10.44335938 126.32617188 C10.48267578 127.47666016 10.52199219 128.62714844 10.5625 129.8125 C10.60568359 130.98232422 10.64886719 132.15214844 10.69335938 133.35742188 C10.79918279 136.23817031 10.90126825 139.11900123 11 142 C-7.99475884 137.23315616 -26.77035355 131.77852369 -45.55682373 126.26123047 C-49.51049729 125.10082398 -53.4652487 123.94410363 -57.41992188 122.78710938 C-63.51182172 121.00438991 -69.6032946 119.22022081 -75.69433594 117.43457031 C-100.36312598 110.19892927 -100.36312598 110.19892927 -125.109375 103.234375 C-126.12257812 102.95335937 -127.13578125 102.67234375 -128.1796875 102.3828125 C-129.50589111 102.01760498 -129.50589111 102.01760498 -130.85888672 101.64501953 C-133 101 -133 101 -135 100 C-135 99.34 -135 98.68 -135 98 C-135.5986084 97.89187988 -136.1972168 97.78375977 -136.81396484 97.67236328 C-143.22459701 96.45974225 -149.39595598 94.80369659 -155.625 92.875 C-156.98818359 92.45927734 -156.98818359 92.45927734 -158.37890625 92.03515625 C-160.58727959 91.36102123 -162.79423163 90.68260023 -165 90 C-160.84406268 86.38721489 -156.42288641 83.94159135 -151.5625 81.4375 C-150.82451172 81.05142578 -150.08652344 80.66535156 -149.32617188 80.26757812 C-147.22185961 79.16959475 -145.11159743 78.08388806 -143 77 C-141.87464844 76.41347656 -140.74929687 75.82695312 -139.58984375 75.22265625 C-137 74 -137 74 -135 74 C-135 73.01 -135 72.02 -135 71 C-133.83726562 70.39414062 -132.67453125 69.78828125 -131.4765625 69.1640625 C-121.10903849 63.74517205 -110.83594972 58.1846606 -100.62939453 52.46923828 C-97.67136735 50.8163685 -94.70909881 49.17127312 -91.74609375 47.52734375 C-90.6372583 46.91213867 -89.52842285 46.29693359 -88.38598633 45.66308594 C-86.07986226 44.3837381 -83.77370974 43.10444154 -81.4675293 41.82519531 C-75.72597261 38.63700313 -69.99181046 35.43671331 -64.2734375 32.20703125 C-54.34948473 26.60517123 -44.43850302 21.08229658 -34.19921875 16.078125 C-28.64676867 13.35527557 -23.17075629 10.48387857 -17.6875 7.625 C-16.6773584 7.10019043 -15.6672168 6.57538086 -14.62646484 6.03466797 C-13.68109863 5.54111816 -12.73573242 5.04756836 -11.76171875 4.5390625 C-10.91569092 4.09771973 -10.06966309 3.65637695 -9.19799805 3.20166016 C-3.341731 0 -3.341731 0 0 0 Z " fill="#364BDC" transform="translate(278,235)"/>
<path d="M0 0 C-1.29342518 3.55213962 -2.82348049 6.38985799 -5.05078125 9.4375 C-7.93135155 13.4638955 -10.71166756 17.54249414 -13.41796875 21.6875 C-13.99299385 22.56751175 -13.99299385 22.56751175 -14.57963562 23.46530151 C-15.37451292 24.6832072 -16.16885138 25.90146472 -16.962677 27.12005615 C-19.05733014 30.33507603 -21.15765785 33.54638472 -23.2578125 36.7578125 C-23.66997513 37.3882547 -24.08213776 38.0186969 -24.50679016 38.66824341 C-30.0404042 47.12697689 -35.66158755 55.52689143 -41.2890625 63.92333984 C-45.91607766 70.8301535 -50.50230286 77.75817133 -55 84.75 C-59.94230092 92.42743992 -64.9936071 100.03087541 -70.0625 107.625 C-70.45566406 108.2141922 -70.84882813 108.8033844 -71.25390625 109.41043091 C-74.83758308 114.7799401 -78.42418 120.14744528 -82.02734375 125.50390625 C-86.11130644 131.58321196 -90.08517915 137.70840665 -93.9375 143.9375 C-97.49480428 149.66361693 -101.12292228 155.33677314 -104.875 160.9375 C-105.32738037 161.63029053 -105.77976074 162.32308105 -106.24584961 163.03686523 C-109.47165245 167.78862144 -109.47165245 167.78862144 -111.79417419 168.71780396 C-114.54434767 169.06963957 -116.98040623 168.85292219 -119.73852539 168.55029297 C-121.48440193 168.36387489 -121.48440193 168.36387489 -123.26554871 168.1736908 C-124.5301442 168.03129471 -125.79473969 167.88889862 -127.09765625 167.7421875 C-128.43107374 167.59699706 -129.76455618 167.45240192 -131.09809875 167.30836487 C-134.67716957 166.9198828 -138.25519243 166.52244061 -141.83306122 166.12305832 C-144.81671282 165.79108257 -147.80091415 165.46420924 -150.78513336 165.13738155 C-164.22089868 163.66567905 -177.65324901 162.16305319 -191.08203125 160.62890625 C-191.96531097 160.52800186 -192.8485907 160.42709747 -193.75863647 160.32313538 C-197.957147 159.84049954 -202.15350061 159.34461242 -206.34765625 158.82543945 C-214.91458782 157.77233561 -223.46959764 156.84992849 -232.07330322 156.14616394 C-236.76010008 155.75526009 -241.44166506 155.31468236 -246.12359619 154.86965942 C-248.38590884 154.66759194 -250.65039014 154.48828923 -252.91644287 154.33370972 C-271.55364716 153.05089188 -271.55364716 153.05089188 -276.47094727 147.94580078 C-279.14690163 144.53961877 -281.05671629 140.86102267 -283 137 C-284.01611799 135.4934979 -285.05920739 134.00430989 -286.14453125 132.546875 C-287.0340067 131.2813572 -287.92333104 130.01573316 -288.8125 128.75 C-293.04337637 122.74160159 -297.31718802 116.76596451 -301.625 110.8125 C-302.17333496 110.05469238 -302.72166992 109.29688477 -303.28662109 108.51611328 C-303.82496582 107.77216309 -304.36331055 107.02821289 -304.91796875 106.26171875 C-311.63268674 96.98173477 -318.25685431 87.6430572 -324.8125 78.25 C-330.44121216 70.18689853 -336.16059404 62.19460478 -341.93359375 54.234375 C-346.32357995 48.18094673 -350.66204397 42.09076445 -355 36 C-354.34 35.34 -353.68 34.68 -353 34 C-347.53483952 40.43385295 -342.41875129 47.06397281 -337.4375 53.875 C-330.44091397 63.44150788 -323.27902151 72.87385182 -316.07617188 82.28564453 C-312.50326735 86.95680546 -308.93937394 91.63482869 -305.375 96.3125 C-304.72418457 97.16569824 -304.07336914 98.01889648 -303.40283203 98.89794922 C-299.57848178 103.91461444 -295.77605633 108.94687687 -292 114 C-291.04222656 113.5153125 -290.08445312 113.030625 -289.09765625 112.53125 C-279.14383955 107.51396105 -269.10592768 102.70275842 -259 98 C-258.67 98.66 -258.34 99.32 -258 100 C-258.74161377 100.37809814 -259.48322754 100.75619629 -260.24731445 101.14575195 C-263.00604848 102.55570432 -265.7620633 103.97080085 -268.51635742 105.3894043 C-270.29206617 106.3019984 -272.07082348 107.20865272 -273.84960938 108.11523438 C-274.96787109 108.69208984 -276.08613281 109.26894531 -277.23828125 109.86328125 C-278.26993408 110.39219971 -279.30158691 110.92111816 -280.36450195 111.46606445 C-283.25175602 112.99632096 -283.25175602 112.99632096 -286 116 C-276.76 118.64 -267.52 121.28 -258 124 C-258 124.66 -258 125.32 -258 126 C-257.08863281 126.21914063 -256.17726563 126.43828125 -255.23828125 126.6640625 C-247.86717557 128.45868513 -240.54011512 130.37279201 -233.25 132.47265625 C-232.37378494 132.72399826 -231.49756989 132.97534027 -230.59480286 133.23429871 C-213.29680056 138.20459625 -196.0155088 143.23355373 -178.73120117 148.2512207 C-156.84893025 154.60308472 -134.94652502 160.87350137 -113 167 C-113.02872696 166.2325798 -113.05745392 165.46515961 -113.08705139 164.67448425 C-113.14462868 163.13634819 -113.14462868 163.13634819 -113.20336914 161.56713867 C-113.26356735 159.96423477 -113.26356735 159.96423477 -113.32498169 158.32894897 C-113.4079798 156.10389281 -113.48868142 153.87875071 -113.56811523 151.65356445 C-113.60622314 150.691521 -113.64433105 149.72947754 -113.68359375 148.73828125 C-113.72025146 147.75899658 -113.75690918 146.77971191 -113.79467773 145.77075195 C-113.93865788 143.04113841 -113.93865788 143.04113841 -114.49291992 140.56640625 C-115.1118564 137.43387845 -115.27093746 134.38863178 -115.4296875 131.19921875 C-115.50167415 129.83209791 -115.57395291 128.46499243 -115.64648438 127.09790039 C-115.70195435 126.02114548 -115.70195435 126.02114548 -115.75854492 124.92263794 C-116.40892304 112.43984339 -117.28222446 100.00273329 -118.5 87.5625 C-120.50587144 67.07144242 -122.04803603 46.56743202 -123 26 C-123.66 25.67 -124.32 25.34 -125 25 C-120.03526076 22.69478342 -115.28449949 21.24083755 -109.89453125 20.23828125 C-109.11379745 20.08665024 -108.33306366 19.93501923 -107.52867126 19.77879333 C-104.95808098 19.28201272 -102.38542441 18.79703405 -99.8125 18.3125 C-97.99828489 17.96497472 -96.18415886 17.61698416 -94.37011719 17.26855469 C-79.06990992 14.34258077 -63.74533302 11.54432809 -48.41333008 8.7902832 C-39.52379707 7.19322054 -30.63962058 5.57215643 -21.765625 3.890625 C-20.91949646 3.73108337 -20.07336792 3.57154175 -19.20159912 3.40716553 C-14.41426348 2.49448273 -9.66127133 1.49329016 -4.918396 0.37103271 C-3 0 -3 0 0 0 Z " fill="#5575E9" transform="translate(401,209)"/>
<path d="M0 0 C2.50255848 -0.10171277 4.71143572 -0.02495588 7.18629456 0.21559143 C7.90313056 0.2735327 8.61996656 0.33147397 9.35852486 0.39117104 C11.57439394 0.57609843 13.78690309 0.78459997 16 1 C17.24269087 1.11677534 18.48538174 1.23355068 19.7657299 1.35386467 C23.52001212 1.72774949 27.26946174 2.13438851 31.01928711 2.55053711 C32.43869395 2.7053652 33.85813372 2.85989164 35.27760315 3.0141449 C39.07453632 3.42784966 42.87092183 3.84637354 46.66716075 4.26639628 C49.04245737 4.52901475 51.41786283 4.79062605 53.79330635 5.05191231 C62.08783569 5.96438781 70.38188524 6.8810981 78.67553711 7.80151367 C86.40141969 8.65879252 94.12835166 9.50612448 101.85580629 10.34910387 C108.50990263 11.0754646 115.16318991 11.80893901 121.81589133 12.54796606 C125.78182651 12.98838921 129.74803687 13.42582625 133.71510124 13.85597038 C137.4302682 14.2590239 141.14435387 14.67086223 144.85777855 15.08965492 C146.2228469 15.24205444 147.58827871 15.39123622 148.95406723 15.53704071 C150.81052079 15.73571801 152.66562499 15.946888 154.52061462 16.15879822 C156.08091856 16.33106886 156.08091856 16.33106886 157.6727438 16.50681973 C158.44073834 16.66956922 159.20873289 16.83231871 160 17 C160.33 17.66 160.66 18.32 161 19 C147.10328398 24.61280839 133.20418974 30.21969414 119.3022337 35.81951141 C112.8475656 38.41966343 106.3936933 41.02175781 99.94165039 43.62841797 C93.71902829 46.14238455 87.49425272 48.65094494 81.26810646 51.15617371 C78.88905049 52.11447633 76.51073144 53.07461046 74.13315392 54.03657532 C70.81162901 55.38010194 67.48758069 56.71718497 64.1628418 58.05273438 C63.1730986 58.45481613 62.18335541 58.85689789 61.16362 59.27116394 C60.25918152 59.63297256 59.35474304 59.99478119 58.42289734 60.36755371 C57.63660792 60.6846505 56.85031851 61.00174728 56.04020214 61.32845306 C54 62 54 62 51 62 C51 62.99 51 63.98 51 65 C50.10925781 65.29390625 49.21851563 65.5878125 48.30078125 65.890625 C37.21093606 69.64077226 26.42854595 74.07101829 15.63671875 78.59228516 C7.71662705 81.90575606 -0.2322932 85.04581821 -8.32421875 87.9140625 C-11.09647915 88.83694799 -11.09647915 88.83694799 -13 91 C-12.06317383 91.62455078 -11.12634766 92.24910156 -10.16113281 92.89257812 C-4.36914063 96.75390625 1.42285156 100.61523438 7.21484375 104.4765625 C8.30738464 105.2046814 8.30738464 105.2046814 9.42199707 105.94750977 C10.87596803 106.91714831 12.32934129 107.88768372 13.78210449 108.85913086 C17.09335314 111.07193371 20.41034838 113.27286756 23.75585938 115.43359375 C24.85220703 116.14644531 25.94855469 116.85929687 27.078125 117.59375 C28.51526855 118.51704102 28.51526855 118.51704102 29.98144531 119.45898438 C30.64756836 119.96751953 31.31369141 120.47605469 32 121 C32 121.66 32 122.32 32 123 C28.29583033 121.64802566 25.22623387 119.97082867 21.96484375 117.76171875 C20.9996582 117.11195068 20.03447266 116.46218262 19.04003906 115.79272461 C18.01620117 115.09800049 16.99236328 114.40327637 15.9375 113.6875 C13.78551732 112.24425315 11.63316727 110.80155391 9.48046875 109.359375 C6.31258423 107.23076814 3.14673848 105.09939505 -0.01318359 102.95898438 C-2.75138429 101.10715111 -5.49946091 99.27093598 -8.25 97.4375 C-9.07636963 96.87184326 -9.90273926 96.30618652 -10.75415039 95.72338867 C-11.52106201 95.21525635 -12.28797363 94.70712402 -13.078125 94.18359375 C-13.74231445 93.73556396 -14.40650391 93.28753418 -15.09082031 92.82592773 C-16.97006137 91.82867399 -16.97006137 91.82867399 -19.04858398 92.20825195 C-21.14450438 93.05862976 -22.4600551 93.98199721 -24.14453125 95.484375 C-24.73137695 96.0009668 -25.31822266 96.51755859 -25.92285156 97.04980469 C-26.85822754 97.89140137 -26.85822754 97.89140137 -27.8125 98.75 C-29.15743114 99.93763698 -30.50248679 101.12513296 -31.84765625 102.3125 C-32.5348877 102.92351562 -33.22211914 103.53453125 -33.93017578 104.1640625 C-37.18314896 107.04945508 -40.46488153 109.90131849 -43.75 112.75 C-44.37455078 113.29269531 -44.99910156 113.83539063 -45.64257812 114.39453125 C-50.17405626 118.31958397 -54.7972123 122.11871837 -59.45703125 125.890625 C-62.0360076 128.02986806 -64.52256353 130.24424937 -67 132.5 C-71.19729034 136.32170863 -75.53710231 139.91474189 -79.94921875 143.484375 C-83.52056409 146.42924875 -87.0121637 149.45714836 -90.5 152.5 C-96.56902389 157.79302274 -102.72505723 162.95134542 -109 168 C-109 163.90510093 -106.96451511 161.52098429 -104.7578125 158.234375 C-104.09421219 157.22869476 -104.09421219 157.22869476 -103.41720581 156.20269775 C-101.99286235 154.04748594 -100.55909535 151.89873196 -99.125 149.75 C-98.19729368 148.34937077 -97.27020397 146.94833292 -96.34375 145.546875 C-93.57181613 141.35835548 -90.78681089 137.17862998 -88 133 C-87.12907472 131.69259598 -86.2582234 130.38514268 -85.38745117 129.07763672 C-81.79081593 123.67851713 -78.18963659 118.28244531 -74.58416748 112.88922119 C-63.61747356 96.51374763 -63.61747356 96.51374763 -52.87524414 79.99072266 C-48.35036191 72.92801865 -43.66150075 65.97286227 -39 59 C-26.99446366 41.03421706 -15.00237765 23.06435848 -3.25488281 4.92822266 C-2.18104495 3.2781893 -1.09203238 1.63804857 0 0 Z " fill="#74A0F6" transform="translate(128,35)"/>
<path d="M0 0 C4.26961553 4.05494212 7.85053764 8.46235332 11.4375 13.125 C12.04658203 13.91197266 12.65566406 14.69894531 13.28320312 15.50976562 C18.20451341 21.89785903 22.98938475 28.38127311 27.74780273 34.89111328 C32.28947566 41.08631712 36.97725372 47.15391929 41.72363281 53.19311523 C46.8232721 59.70732132 51.72211547 66.360738 56.55859375 73.07226562 C57.11160156 73.83345703 57.66460937 74.59464844 58.234375 75.37890625 C58.72131836 76.0551001 59.20826172 76.73129395 59.70996094 77.42797852 C60.93326666 79.13651749 60.93326666 79.13651749 63 80 C65.62834593 78.738879 68.14527717 77.41816949 70.6875 76 C78.65023106 71.66018767 86.74077654 67.73889155 95 64 C95.33 64.66 95.66 65.32 96 66 C95.25838623 66.37809814 94.51677246 66.75619629 93.75268555 67.14575195 C90.99395152 68.55570432 88.2379367 69.97080085 85.48364258 71.3894043 C83.70793383 72.3019984 81.92917652 73.20865272 80.15039062 74.11523438 C79.03212891 74.69208984 77.91386719 75.26894531 76.76171875 75.86328125 C75.73006592 76.39219971 74.69841309 76.92111816 73.63549805 77.46606445 C70.74824398 78.99632096 70.74824398 78.99632096 68 82 C77.24 84.64 86.48 87.28 96 90 C96 90.66 96 91.32 96 92 C96.91136719 92.21914063 97.82273437 92.43828125 98.76171875 92.6640625 C106.13282443 94.45868513 113.45988488 96.37279201 120.75 98.47265625 C122.06432259 98.84966927 122.06432259 98.84966927 123.40519714 99.23429871 C140.70319944 104.20459625 157.9844912 109.23355373 175.26879883 114.2512207 C197.15150815 120.60321197 219.05683527 126.85944801 241 133 C240.67 122.77 240.34 112.54 240 102 C240.66 102 241.32 102 242 102 C242.05534912 102.65073486 242.11069824 103.30146973 242.16772461 103.97192383 C242.42053693 106.91912099 242.67895326 109.8658006 242.9375 112.8125 C243.06801758 114.34874023 243.06801758 114.34874023 243.20117188 115.91601562 C243.28818359 116.89892578 243.37519531 117.88183594 243.46484375 118.89453125 C243.543396 119.80050049 243.62194824 120.70646973 243.70288086 121.63989258 C243.94046098 124.14680749 243.94046098 124.14680749 245 127 C245.40839111 126.36908447 245.81678223 125.73816895 246.23754883 125.08813477 C248.08743812 122.24067632 249.94976276 119.40156848 251.8125 116.5625 C252.45509766 115.56927734 253.09769531 114.57605469 253.75976562 113.55273438 C254.69272461 112.13637695 254.69272461 112.13637695 255.64453125 110.69140625 C256.50075073 109.37958374 256.50075073 109.37958374 257.37426758 108.04125977 C259 106 259 106 262 105 C259.69785425 111.34426858 255.83465065 116.65597813 252.125 122.25 C251.39698739 123.37490422 250.66912139 124.49990333 249.94140625 125.625 C249.24144531 126.68203125 248.54148437 127.7390625 247.8203125 128.828125 C247.18367676 129.7965332 246.54704102 130.76494141 245.89111328 131.76269531 C243.74983069 134.29596586 243.17656411 134.52919759 240 135 C238.08298832 134.91937334 236.16873452 134.75956333 234.26147461 134.55029297 C232.51559807 134.36387489 232.51559807 134.36387489 230.73445129 134.1736908 C229.4698558 134.03129471 228.20526031 133.88889862 226.90234375 133.7421875 C225.56892626 133.59699706 224.23544382 133.45240192 222.90190125 133.30836487 C219.32283043 132.9198828 215.74480757 132.52244061 212.16693878 132.12305832 C209.18328718 131.79108257 206.19908585 131.46420924 203.21486664 131.13738155 C189.77910132 129.66567905 176.34675099 128.16305319 162.91796875 126.62890625 C162.03468903 126.52800186 161.1514093 126.42709747 160.24136353 126.32313538 C156.042853 125.84049954 151.84649939 125.34461242 147.65234375 124.82543945 C139.08541218 123.77233561 130.53040236 122.84992849 121.92669678 122.14616394 C117.23989992 121.75526009 112.55833494 121.31468236 107.87640381 120.86965942 C105.61409116 120.66759194 103.34960986 120.48828923 101.08355713 120.33370972 C82.44635284 119.05089188 82.44635284 119.05089188 77.52905273 113.94580078 C74.85309837 110.53961877 72.94328371 106.86102267 71 103 C69.98388201 101.4934979 68.94079261 100.00430989 67.85546875 98.546875 C66.9659933 97.2813572 66.07666896 96.01573316 65.1875 94.75 C60.95662363 88.74160159 56.68281198 82.76596451 52.375 76.8125 C51.82666504 76.05469238 51.27833008 75.29688477 50.71337891 74.51611328 C50.17503418 73.77216309 49.63668945 73.02821289 49.08203125 72.26171875 C42.36731326 62.98173477 35.74314569 53.6430572 29.1875 44.25 C23.55878784 36.18689853 17.83940596 28.19460478 12.06640625 20.234375 C7.67642005 14.18094673 3.33795603 8.09076445 -1 2 C-0.67 1.34 -0.34 0.68 0 0 Z " fill="#75A2F6" transform="translate(47,243)"/>
<path d="M0 0 C4.26961553 4.05494212 7.85053764 8.46235332 11.4375 13.125 C12.04658203 13.91197266 12.65566406 14.69894531 13.28320312 15.50976562 C18.20451341 21.89785903 22.98938475 28.38127311 27.74780273 34.89111328 C32.28947566 41.08631712 36.97725372 47.15391929 41.72363281 53.19311523 C46.8232721 59.70732132 51.72211547 66.360738 56.55859375 73.07226562 C57.11160156 73.83345703 57.66460937 74.59464844 58.234375 75.37890625 C58.72131836 76.0551001 59.20826172 76.73129395 59.70996094 77.42797852 C60.93326666 79.13651749 60.93326666 79.13651749 63 80 C65.62834593 78.738879 68.14527717 77.41816949 70.6875 76 C78.65023106 71.66018767 86.74077654 67.73889155 95 64 C95.33 64.66 95.66 65.32 96 66 C95.25838623 66.37809814 94.51677246 66.75619629 93.75268555 67.14575195 C90.99395152 68.55570432 88.2379367 69.97080085 85.48364258 71.3894043 C83.70793383 72.3019984 81.92917652 73.20865272 80.15039062 74.11523438 C79.03212891 74.69208984 77.91386719 75.26894531 76.76171875 75.86328125 C75.73006592 76.39219971 74.69841309 76.92111816 73.63549805 77.46606445 C71.3312973 78.80717546 69.74039964 80.00910805 68 82 C69.12027588 82.31022095 69.12027588 82.31022095 70.26318359 82.62670898 C73.63438113 83.56151933 77.00469722 84.49946911 80.375 85.4375 C82.1384375 85.92573242 82.1384375 85.92573242 83.9375 86.42382812 C85.05898437 86.73642578 86.18046875 87.04902344 87.3359375 87.37109375 C88.37282715 87.65911865 89.4097168 87.94714355 90.47802734 88.24389648 C93 89 93 89 95 90 C95 90.66 95 91.32 95 92 C87.75065147 90.73424073 80.82419927 88.84595605 73.80297852 86.67700195 C70.76586125 85.750676 68.19496922 85 65 85 C67.10307317 88.72978435 69.20765055 92.45871782 71.3125 96.1875 C71.90740234 97.24259766 72.50230469 98.29769531 73.11523438 99.38476562 C73.69208984 100.40634766 74.26894531 101.42792969 74.86328125 102.48046875 C75.39219971 103.41785889 75.92111816 104.35524902 76.46606445 105.32104492 C77.51346849 107.1502928 78.6140895 108.94982246 79.75854492 110.7199707 C80.37306519 111.84858521 80.37306519 111.84858521 81 113 C80.67 113.66 80.34 114.32 80 115 C75.3357662 109.14132015 70.97877298 103.15790006 66.8125 96.9375 C62.66163016 90.80278946 58.41823796 84.77327246 53.9375 78.875 C47.15787224 69.94684395 40.73450245 60.78460668 34.31982422 51.59228516 C32.56797428 49.08194303 30.81553656 46.57201363 29.0625 44.0625 C28.47774902 43.22541504 27.89299805 42.38833008 27.29052734 41.52587891 C22.28609906 34.37728697 17.18946127 27.29822171 12.06640625 20.234375 C7.67642005 14.18094673 3.33795603 8.09076445 -1 2 C-0.67 1.34 -0.34 0.68 0 0 Z " fill="#87B4FB" transform="translate(47,243)"/>
<path d="M0 0 C-5.35610567 2.74492901 -10.73031824 5.2163961 -16.3125 7.4609375 C-17.0844873 7.77398834 -17.85647461 8.08703918 -18.65185547 8.40957642 C-20.27817752 9.06823111 -21.90514091 9.72530427 -23.53271484 10.38085938 C-25.96745884 11.36188822 -28.3998883 12.34848056 -30.83203125 13.3359375 C-39.20567017 16.72507513 -47.59228117 20.04402022 -56.10205078 23.07894897 C-58.93423407 24.11047619 -60.84031661 24.84031661 -63 27 C-61.59476074 27.93682617 -61.59476074 27.93682617 -60.16113281 28.89257812 C-54.36914062 32.75390625 -48.57714844 36.61523438 -42.78515625 40.4765625 C-42.05679565 40.9619751 -41.32843506 41.4473877 -40.57800293 41.94750977 C-39.12403197 42.91714831 -37.67065871 43.88768372 -36.21789551 44.85913086 C-32.90664686 47.07193371 -29.58965162 49.27286756 -26.24414062 51.43359375 C-25.14779297 52.14644531 -24.05144531 52.85929687 -22.921875 53.59375 C-21.9637793 54.20927734 -21.00568359 54.82480469 -20.01855469 55.45898438 C-19.35243164 55.96751953 -18.68630859 56.47605469 -18 57 C-18 57.66 -18 58.32 -18 59 C-21.68531763 57.65255574 -24.75077267 55.9898558 -28 53.796875 C-28.960271 53.15250488 -29.92054199 52.50813477 -30.90991211 51.84423828 C-31.92964111 51.15313965 -32.94937012 50.46204102 -34 49.75 C-36.14696328 48.30443181 -38.29410239 46.85912473 -40.44140625 45.4140625 C-42.07166748 44.31433105 -42.07166748 44.31433105 -43.73486328 43.19238281 C-46.88419488 41.07775759 -50.04614096 38.98389668 -53.21484375 36.8984375 C-54.17970703 36.26196289 -55.14457031 35.62548828 -56.13867188 34.96972656 C-57.97774015 33.75758421 -59.81883017 32.54850267 -61.66210938 31.34277344 C-62.48388672 30.79911133 -63.30566406 30.25544922 -64.15234375 29.6953125 C-64.87413818 29.22109863 -65.59593262 28.74688477 -66.33959961 28.25830078 C-68 27 -68 27 -69 25 C-60.59943904 21.57955854 -52.19410344 18.17121319 -43.78240585 14.77825069 C-39.87675075 13.20241466 -35.97287453 11.62244865 -32.07275391 10.03295898 C-28.3095303 8.49943947 -24.54204401 6.976882 -20.77133942 5.46185493 C-19.33284222 4.88164851 -17.89593027 4.29749587 -16.46065521 3.70936394 C-14.45144532 2.88683251 -12.43707827 2.07845899 -10.42089844 1.27319336 C-9.27506287 0.80908554 -8.12922729 0.34497772 -6.94866943 -0.13319397 C-4.02660214 -0.9921799 -2.77863369 -1.11596731 0 0 Z " fill="#E9EFFD" transform="translate(178,99)"/>
<path d="M0 0 C3.60233548 1.33486743 6.71425946 2.94479125 9.94921875 5.01171875 C10.88056641 5.60533203 11.81191406 6.19894531 12.77148438 6.81054688 C13.73376953 7.42994141 14.69605469 8.04933594 15.6875 8.6875 C16.63044922 9.28755859 17.57339844 9.88761719 18.54492188 10.50585938 C24.81031759 14.51485141 30.94066244 18.68630709 37 23 C34.42418619 25.95175546 31.48248437 27.50753638 28.0390625 29.328125 C27.45264984 29.64021912 26.86623718 29.95231323 26.26205444 30.27386475 C24.3857097 31.27105036 22.50550779 32.26069148 20.625 33.25 C19.39946938 33.89922979 18.17420642 34.54896509 16.94921875 35.19921875 C15.12190484 36.16910215 13.2941031 37.13796705 11.46417236 38.10290527 C8.38279633 39.72857079 5.31185996 41.37018581 2.25683594 43.04492188 C1.3619899 43.53384918 1.3619899 43.53384918 0.44906616 44.03265381 C-1.19405282 44.93235197 -2.83465509 45.836642 -4.47509766 46.74121094 C-7 48 -7 48 -9 48 C-9 47.34 -9 46.68 -9 46 C-8.07775635 45.51120361 -7.1555127 45.02240723 -6.20532227 44.51879883 C-2.74390959 42.68391925 0.71687826 40.84786382 4.17749023 39.01147461 C5.66788314 38.22079517 7.15843941 37.4304236 8.64916992 36.64038086 C16.47159452 32.4944696 24.2834583 28.34109843 32 24 C28.26562347 19.72337154 23.59753825 17.06792825 18.8125 14.125 C13.81819564 11.02781839 8.82535595 7.92759399 3.88671875 4.7421875 C3.13994873 4.26378418 2.39317871 3.78538086 1.6237793 3.29248047 C1.08793213 2.86596191 0.55208496 2.43944336 0 2 C0 1.34 0 0.68 0 0 Z " fill="#E9ECFB" transform="translate(242,209)"/>
<path d="M0 0 C0.66 0 1.32 0 2 0 C2.08302368 0.97610229 2.08302368 0.97610229 2.16772461 1.97192383 C2.42053693 4.91912099 2.67895326 7.8658006 2.9375 10.8125 C3.02451172 11.83666016 3.11152344 12.86082031 3.20117188 13.91601562 C3.28818359 14.89892578 3.37519531 15.88183594 3.46484375 16.89453125 C3.543396 17.80050049 3.62194824 18.70646973 3.70288086 19.63989258 C3.94046098 22.14680749 3.94046098 22.14680749 5 25 C5.40839111 24.36908447 5.81678223 23.73816895 6.23754883 23.08813477 C8.08743812 20.24067632 9.94976276 17.40156848 11.8125 14.5625 C12.45509766 13.56927734 13.09769531 12.57605469 13.75976562 11.55273438 C14.38173828 10.60849609 15.00371094 9.66425781 15.64453125 8.69140625 C16.50075073 7.37958374 16.50075073 7.37958374 17.37426758 6.04125977 C19 4 19 4 22 3 C20.57566887 6.94748337 18.69652372 10.21274646 16.375 13.703125 C15.66859375 14.7653125 14.9621875 15.8275 14.234375 16.921875 C13.86763672 17.46779297 13.50089844 18.01371094 13.12304688 18.57617188 C11.99693027 20.25457523 10.88088553 21.93936897 9.765625 23.625 C9.05921875 24.68203125 8.3528125 25.7390625 7.625 26.828125 C6.97789062 27.7965332 6.33078125 28.76494141 5.6640625 29.76269531 C4 32 4 32 2 33 C1.22461368 28.81125824 0.82545987 24.76379599 0.68359375 20.5078125 C0.64169922 19.30898438 0.59980469 18.11015625 0.55664062 16.875 C0.51732422 15.6375 0.47800781 14.4 0.4375 13.125 C0.39431641 11.86429687 0.35113281 10.60359375 0.30664062 9.3046875 C0.20090898 6.20322577 0.09881429 3.10168855 0 0 Z " fill="#F9FAFE" transform="translate(287,345)"/>
<path d="M0 0 C0.66 0.66 1.32 1.32 2 2 C1.25838623 2.37809814 0.51677246 2.75619629 -0.24731445 3.14575195 C-3.00604848 4.55570432 -5.7620633 5.97080085 -8.51635742 7.3894043 C-10.29206617 8.3019984 -12.07082348 9.20865272 -13.84960938 10.11523438 C-14.96787109 10.69208984 -16.08613281 11.26894531 -17.23828125 11.86328125 C-18.26993408 12.39219971 -19.30158691 12.92111816 -20.36450195 13.46606445 C-22.6687027 14.80717546 -24.25960036 16.00910805 -26 18 C-24.87972412 18.31022095 -24.87972412 18.31022095 -23.73681641 18.62670898 C-20.36561887 19.56151933 -16.99530278 20.49946911 -13.625 21.4375 C-12.449375 21.76298828 -11.27375 22.08847656 -10.0625 22.42382812 C-8.94101563 22.73642578 -7.81953125 23.04902344 -6.6640625 23.37109375 C-5.62717285 23.65911865 -4.5902832 23.94714355 -3.52197266 24.24389648 C-1 25 -1 25 1 26 C1 26.66 1 27.32 1 28 C-6.70552627 26.629793 -14.13096519 24.61501526 -21.625 22.375 C-22.72457031 22.05015625 -23.82414062 21.7253125 -24.95703125 21.390625 C-27.63919991 20.597636 -30.32012475 19.80069834 -33 19 C-33 18.34 -33 17.68 -33 17 C-22.06327768 11.20181789 -11.10470121 5.47083159 0 0 Z " fill="#E8ECFC" transform="translate(141,307)"/>
<path d="M0 0 C0.66 0 1.32 0 2 0 C2.05534912 0.64026123 2.11069824 1.28052246 2.16772461 1.94018555 C2.42144165 4.8562154 2.67942949 7.77185234 2.9375 10.6875 C3.02451172 11.69490234 3.11152344 12.70230469 3.20117188 13.74023438 C3.28818359 14.71669922 3.37519531 15.69316406 3.46484375 16.69921875 C3.543396 17.59471436 3.62194824 18.49020996 3.70288086 19.4128418 C3.9980463 21.98298823 4.45612236 24.47186549 5 27 C3.68 27 2.36 27 1 27 C0.67 18.09 0.34 9.18 0 0 Z " fill="#EDF0FC" transform="translate(287,345)"/>
<path d="M0 0 C4.39572409 1.51925948 6.38065908 4.94219308 8.875 8.625 C9.75285869 9.89525584 10.63176109 11.16479104 11.51171875 12.43359375 C11.93501465 13.04702637 12.35831055 13.66045898 12.79443359 14.29248047 C14.78337491 17.10954316 16.94669023 19.78694689 19.13671875 22.44921875 C19.42160156 22.96097656 19.70648438 23.47273438 20 24 C19.67 24.99 19.34 25.98 19 27 C14.06667127 20.49372587 9.198383 13.94612297 4.4375 7.3125 C3.99615723 6.70067871 3.55481445 6.08885742 3.10009766 5.45849609 C0 1.11934471 0 1.11934471 0 0 Z " fill="#8BAEF8" transform="translate(26,216)"/>
<path d="M0 0 C0.66 0 1.32 0 2 0 C2.66 3.63 3.32 7.26 4 11 C2.68 11 1.36 11 0 11 C0 7.37 0 3.74 0 0 Z " fill="#D4D9F8" transform="translate(288,361)"/>
</svg>
