<svg width="170" height="42" viewBox="0 0 170 42" fill="none" xmlns="http://www.w3.org/2000/svg">
<g clip-path="url(#clip0_192_1211)">
<path d="M20.9999 0.5L17.2382 2.66275L6.98819 8.58725L3.22644 10.75V31.25L6.98819 33.4128L17.3321 39.3372L21.0939 41.5L24.8556 39.3372L35.0117 33.4128L38.7734 31.25V10.75L35.0117 8.58725L24.7617 2.66275L20.9999 0.5ZM10.7499 26.9245V15.0755L20.9999 9.151L31.2499 15.0755V26.9245L20.9999 32.849L10.7499 26.9245Z" fill="#366CF0"/>
</g>
<path d="M55.5781 30.7148C54.0384 30.7148 52.6562 30.3389 51.4316 29.5869C50.207 28.835 49.2617 27.8145 48.5957 26.5254C47.9297 25.2292 47.5967 23.804 47.5967 22.25C47.5967 19.8581 48.3451 17.8493 49.8418 16.2236C51.3385 14.598 53.2507 13.7852 55.5781 13.7852C57.6908 13.7852 59.4238 14.3903 60.7773 15.6006C62.138 16.8037 62.8828 18.3005 63.0117 20.0908H60.2617C60.2044 19.6826 60.0719 19.2816 59.8643 18.8877C59.6637 18.4867 59.3844 18.1035 59.0264 17.7383C58.6683 17.373 58.1921 17.0758 57.5977 16.8467C57.0033 16.6175 56.3301 16.5029 55.5781 16.5029C53.9668 16.5029 52.6849 17.0472 51.7324 18.1357C50.7799 19.2243 50.3037 20.5957 50.3037 22.25C50.3037 23.9043 50.7799 25.2757 51.7324 26.3643C52.6849 27.4528 53.9668 27.9971 55.5781 27.9971C56.9102 27.9971 57.9915 27.639 58.8223 26.9229C59.653 26.1995 60.1328 25.4118 60.2617 24.5596H63.0117C62.8685 26.1423 62.0843 27.5602 60.6592 28.8135C59.234 30.0667 57.5404 30.7005 55.5781 30.7148ZM79.2432 14V30.5H76.3857V23.5068H68.7051V30.5H65.8477V14H68.7051V20.9717H76.3857V14H79.2432ZM92.7568 26.9121H85.3447L83.9805 30.5H80.876L87.5039 14H90.6943L97.3115 30.5H94.2393L92.7568 26.9121ZM91.9512 24.4307L89.1045 16.9004L86.1826 24.4307H91.9512ZM98.9551 14H101.812V30.5H98.9551V14ZM119.193 14V30.5H116.325L107.377 18.3828V30.5H104.52V14H107.398L116.347 26.0957V14H119.193ZM121.857 14H124.715V27.9971H130.44V30.5H121.857V14ZM132.664 14H135.521V30.5H132.664V14ZM152.902 14V30.5H150.034L141.086 18.3828V30.5H138.229V14H141.107L150.056 26.0957V14H152.902ZM165.374 30.5L158.467 23.0449V30.5H155.609V14H158.467V21.4766L164.515 14H167.845L161.421 22.1426L169.112 30.5H165.374Z" fill="#CDCDCD"/>
<defs>
<clipPath id="clip0_192_1211">
<rect width="41" height="41" fill="white" transform="translate(0.5 0.5)"/>
</clipPath>
</defs>
</svg>
