<svg width="188" height="42" viewBox="0 0 188 42" fill="none" xmlns="http://www.w3.org/2000/svg">
<path d="M21 39.3647C31.1425 39.3647 39.3646 31.1426 39.3646 21.0001C39.3646 10.8576 31.1425 2.6355 21 2.6355C10.8575 2.6355 2.63544 10.8576 2.63544 21.0001C2.63544 31.1426 10.8575 39.3647 21 39.3647Z" stroke="#366CF0" stroke-width="0.854167" stroke-linecap="round" stroke-linejoin="round"/>
<path d="M21 35.0938C28.7838 35.0938 35.0938 28.7838 35.0938 21C35.0938 13.2162 28.7838 6.90625 21 6.90625C13.2162 6.90625 6.90625 13.2162 6.90625 21C6.90625 28.7838 13.2162 35.0938 21 35.0938Z" stroke="#366CF0" stroke-width="0.854167" stroke-linecap="round" stroke-linejoin="round"/>
<path d="M21 30.8228C26.425 30.8228 30.8229 26.425 30.8229 20.9999C30.8229 15.5749 26.425 11.177 21 11.177C15.5749 11.177 11.1771 15.5749 11.1771 20.9999C11.1771 26.425 15.5749 30.8228 21 30.8228Z" stroke="#366CF0" stroke-width="0.854167" stroke-linecap="round" stroke-linejoin="round"/>
<path d="M21 26.5522C24.0664 26.5522 26.5521 24.0664 26.5521 21.0001C26.5521 17.9338 24.0664 15.448 21 15.448C17.9337 15.448 15.4479 17.9338 15.4479 21.0001C15.4479 24.0664 17.9337 26.5522 21 26.5522Z" stroke="#366CF0" stroke-width="0.854167" stroke-linecap="round" stroke-linejoin="round"/>
<path d="M74.042 14L69.3047 30.5H66.168L62.2256 18.8662L58.5947 30.5H55.4473L50.3662 14H53.4707L57.1016 27.3311L60.8184 14H63.6543L67.6611 27.3525L70.959 14H74.042ZM88.3398 28.2656C86.8288 29.8984 84.8988 30.7148 82.5498 30.7148C80.208 30.7148 78.2816 29.8984 76.7705 28.2656C75.2594 26.6328 74.5039 24.6276 74.5039 22.25C74.5039 19.8724 75.2594 17.8672 76.7705 16.2344C78.2816 14.6016 80.208 13.7852 82.5498 13.7852C84.8988 13.7852 86.8288 14.6016 88.3398 16.2344C89.8509 17.8672 90.6064 19.8724 90.6064 22.25C90.6064 24.6276 89.8509 26.6328 88.3398 28.2656ZM78.6826 26.332C79.6494 27.4062 80.9385 27.9434 82.5498 27.9434C84.1611 27.9434 85.4466 27.4062 86.4062 26.332C87.373 25.2507 87.8564 23.89 87.8564 22.25C87.8564 20.5957 87.373 19.2314 86.4062 18.1572C85.4466 17.0758 84.1611 16.5352 82.5498 16.5352C80.9385 16.5352 79.6494 17.0758 78.6826 18.1572C77.7158 19.2314 77.2324 20.5957 77.2324 22.25C77.2324 23.89 77.7158 25.2507 78.6826 26.332ZM105.452 30.5H102.24L98.2979 24.1406H95.5049V30.5H92.6475V14H99.8984C101.216 14 102.344 14.5299 103.282 15.5898C104.228 16.6426 104.7 17.8493 104.7 19.21C104.7 20.3271 104.367 21.3405 103.701 22.25C103.035 23.1595 102.194 23.7324 101.177 23.9688L105.452 30.5ZM99.791 21.8955C100.45 21.8955 100.998 21.6413 101.435 21.1328C101.879 20.6172 102.101 19.9691 102.101 19.1885C102.101 18.4294 101.875 17.7884 101.424 17.2656C100.98 16.7428 100.436 16.4814 99.791 16.4814H95.5049V21.8955H99.791ZM125.003 14V30.5H122.167V18.0498L117.698 30.5H114.884L110.372 18.0498V30.5H107.515V14H111.521L116.27 26.8262L121.039 14H125.003ZM141.256 14V30.5H138.398V23.5068H130.718V30.5H127.86V14H130.718V20.9717H138.398V14H141.256ZM157.283 28.2656C155.772 29.8984 153.842 30.7148 151.493 30.7148C149.151 30.7148 147.225 29.8984 145.714 28.2656C144.203 26.6328 143.447 24.6276 143.447 22.25C143.447 19.8724 144.203 17.8672 145.714 16.2344C147.225 14.6016 149.151 13.7852 151.493 13.7852C153.842 13.7852 155.772 14.6016 157.283 16.2344C158.794 17.8672 159.55 19.8724 159.55 22.25C159.55 24.6276 158.794 26.6328 157.283 28.2656ZM147.626 26.332C148.593 27.4062 149.882 27.9434 151.493 27.9434C153.104 27.9434 154.39 27.4062 155.35 26.332C156.316 25.2507 156.8 23.89 156.8 22.25C156.8 20.5957 156.316 19.2314 155.35 18.1572C154.39 17.0758 153.104 16.5352 151.493 16.5352C149.882 16.5352 148.593 17.0758 147.626 18.1572C146.659 19.2314 146.176 20.5957 146.176 22.25C146.176 23.89 146.659 25.2507 147.626 26.332ZM161.655 14H164.513V27.9971H170.238V30.5H161.655V14ZM175.147 16.4814V20.9932H182.012V23.5068H175.147V27.9971H182.936V30.5H172.29V14H182.936V16.4814H175.147Z" fill="#CDCDCD"/>
</svg>
