<svg width="84" height="21" viewBox="0 0 84 21" fill="none" xmlns="http://www.w3.org/2000/svg">
<path fill-rule="evenodd" clip-rule="evenodd" d="M10.348 15.9542C13.4039 15.9542 15.8813 13.5123 15.8813 10.5C15.8813 7.48775 13.4039 5.04583 10.348 5.04583C7.29198 5.04583 4.81462 7.48775 4.81462 10.5C4.81462 13.5123 7.29198 15.9542 10.348 15.9542ZM10.348 20.125C15.7409 20.125 20.1127 15.8157 20.1127 10.5C20.1127 5.18426 15.7409 0.875 10.348 0.875C4.95506 0.875 0.583252 5.18426 0.583252 10.5C0.583252 15.8157 4.95506 20.125 10.348 20.125Z" fill="#6938EF"/>
<path d="M10.4597 10.7109C11.4765 9.70856 13.1253 9.70856 14.1422 10.7109L19.2056 15.7019C20.2225 16.7042 20.2225 18.3294 19.2056 19.3317C18.1887 20.3341 16.54 20.3341 15.5231 19.3317L10.4597 14.3407C9.44276 13.3384 9.44276 11.7132 10.4597 10.7109Z" fill="#F670C7"/>
<path d="M11.8815 15.7421L15.0973 18.9119C16.6398 18.064 17.9249 16.8158 18.808 15.3099L15.6185 12.166C15.0582 13.8895 13.652 15.2398 11.8815 15.7421Z" fill="#6519BA"/>
<path d="M35.8783 15.7939C35.5966 16.1369 35.2527 16.3982 34.8468 16.5779C34.4491 16.7575 34.0099 16.8474 33.5294 16.8474C32.8832 16.8474 32.299 16.7085 31.7771 16.4309C31.2551 16.1614 30.6586 15.6795 29.9875 14.9854C29.2004 14.8874 28.4961 14.6383 27.8748 14.2381C27.2616 13.838 26.7811 13.3235 26.4331 12.6946C26.0934 12.0576 25.9236 11.3553 25.9236 10.5876C25.9236 9.74646 26.1266 8.99104 26.5325 8.32138C26.9468 7.64354 27.5143 7.11271 28.2352 6.72888C28.9643 6.34504 29.7803 6.15313 30.6834 6.15313C31.5865 6.15313 32.3985 6.34504 33.1193 6.72888C33.8401 7.11271 34.4076 7.64354 34.8219 8.32138C35.2362 8.99104 35.4433 9.74646 35.4433 10.5876C35.4433 11.584 35.1574 12.4578 34.5858 13.2091C34.0224 13.9605 33.2726 14.4831 32.3363 14.7771C32.5435 14.9895 32.7423 15.1405 32.9329 15.2304C33.1317 15.3284 33.343 15.3774 33.5667 15.3774C34.1052 15.3774 34.5775 15.165 34.9835 14.7404L35.8783 15.7939ZM27.9617 10.5876C27.9617 11.1185 28.0777 11.5921 28.3097 12.0086C28.55 12.4251 28.8773 12.7518 29.2915 12.9886C29.7058 13.2173 30.1698 13.3316 30.6834 13.3316C31.1971 13.3316 31.6611 13.2173 32.0753 12.9886C32.4896 12.7518 32.8127 12.4251 33.0447 12.0086C33.285 11.5921 33.4051 11.1185 33.4051 10.5876C33.4051 10.0568 33.285 9.58313 33.0447 9.16663C32.8127 8.75013 32.4896 8.42754 32.0753 8.19888C31.6611 7.96204 31.1971 7.84363 30.6834 7.84363C30.1698 7.84363 29.7058 7.96204 29.2915 8.19888C28.8773 8.42754 28.55 8.75013 28.3097 9.16663C28.0777 9.58313 27.9617 10.0568 27.9617 10.5876Z" fill="white"/>
<path d="M43.5555 8.28463V14.8751H41.7162V14.0911C41.4594 14.377 41.1528 14.5975 40.7966 14.7526C40.4403 14.8996 40.055 14.9731 39.6408 14.9731C38.7625 14.9731 38.0666 14.724 37.5529 14.2259C37.0392 13.7277 36.7824 12.9886 36.7824 12.0086V8.28463H38.7211V11.7269C38.7211 12.7885 39.1727 13.3194 40.0758 13.3194C40.5397 13.3194 40.9126 13.1724 41.1943 12.8784C41.476 12.5762 41.6168 12.1311 41.6168 11.5431V8.28463H43.5555Z" fill="white"/>
<path d="M48.5332 14.9731C47.8289 14.9731 47.1951 14.8302 46.6317 14.5444C46.0766 14.2504 45.6416 13.8461 45.3268 13.3316C45.012 12.8171 44.8545 12.2332 44.8545 11.5799C44.8545 10.9265 45.012 10.3426 45.3268 9.82813C45.6416 9.31363 46.0766 8.91346 46.6317 8.62763C47.1951 8.33363 47.8289 8.18663 48.5332 8.18663C49.2374 8.18663 49.8671 8.33363 50.4222 8.62763C50.9773 8.91346 51.4123 9.31363 51.7271 9.82813C52.042 10.3426 52.1994 10.9265 52.1994 11.5799C52.1994 12.2332 52.042 12.8171 51.7271 13.3316C51.4123 13.8461 50.9773 14.2504 50.4222 14.5444C49.8671 14.8302 49.2374 14.9731 48.5332 14.9731ZM48.5332 13.4051C49.0303 13.4051 49.4363 13.2418 49.7511 12.9151C50.0742 12.5803 50.2358 12.1352 50.2358 11.5799C50.2358 11.0245 50.0742 10.5835 49.7511 10.2569C49.4363 9.92204 49.0303 9.75463 48.5332 9.75463C48.0361 9.75463 47.6259 9.92204 47.3028 10.2569C46.9797 10.5835 46.8181 11.0245 46.8181 11.5799C46.8181 12.1352 46.9797 12.5803 47.3028 12.9151C47.6259 13.2418 48.0361 13.4051 48.5332 13.4051Z" fill="white"/>
<path d="M57.8077 14.5566C57.6171 14.6955 57.381 14.8016 57.0993 14.8751C56.8259 14.9405 56.5359 14.9731 56.2294 14.9731C55.434 14.9731 54.8167 14.773 54.3776 14.3729C53.9468 13.9727 53.7314 13.3847 53.7314 12.6089V9.90163H52.6999V8.43163H53.7314V6.82688H55.6701V8.43163H57.3354V9.90163H55.6701V12.5844C55.6701 12.862 55.7405 13.0785 55.8814 13.2336C56.0305 13.3806 56.2377 13.4541 56.5028 13.4541C56.8093 13.4541 57.0703 13.3725 57.2857 13.2091L57.8077 14.5566Z" fill="white"/>
<path d="M58.896 8.28463H60.8348V14.8751H58.896V8.28463ZM59.8654 7.36588C59.5091 7.36588 59.2191 7.26379 58.9954 7.05963C58.7717 6.85546 58.6599 6.60229 58.6599 6.30013C58.6599 5.99796 58.7717 5.74479 58.9954 5.54063C59.2191 5.33646 59.5091 5.23438 59.8654 5.23438C60.2216 5.23438 60.5116 5.33238 60.7353 5.52838C60.959 5.72438 61.0709 5.96938 61.0709 6.26338C61.0709 6.58188 60.959 6.84729 60.7353 7.05963C60.5116 7.26379 60.2216 7.36588 59.8654 7.36588Z" fill="white"/>
<path d="M69.1835 11.6044C69.1835 11.6289 69.1711 11.8004 69.1462 12.1189H64.0881C64.1793 12.5272 64.3947 12.8498 64.7344 13.0866C65.0741 13.3235 65.4966 13.4419 66.002 13.4419C66.35 13.4419 66.6565 13.3929 66.9217 13.2949C67.1951 13.1887 67.4478 13.0254 67.6798 12.8049L68.7113 13.9074C68.0816 14.6179 67.1619 14.9731 65.9523 14.9731C65.1983 14.9731 64.5314 14.8302 63.9514 14.5444C63.3714 14.2504 62.924 13.8461 62.6092 13.3316C62.2944 12.8171 62.137 12.2332 62.137 11.5799C62.137 10.9347 62.2902 10.3549 62.5968 9.84038C62.9116 9.31771 63.3383 8.91346 63.8768 8.62763C64.4237 8.33363 65.0326 8.18663 65.7037 8.18663C66.3583 8.18663 66.9507 8.32546 67.4809 8.60313C68.0112 8.88079 68.4254 9.28096 68.7237 9.80363C69.0302 10.3181 69.1835 10.9184 69.1835 11.6044ZM65.7162 9.63213C65.277 9.63213 64.9084 9.75463 64.6101 9.99963C64.3118 10.2446 64.1295 10.5795 64.0633 11.0041H67.3566C67.2903 10.5876 67.1081 10.2569 66.8098 10.0119C66.5115 9.75871 66.147 9.63213 65.7162 9.63213Z" fill="white"/>
<path d="M74.5382 8.18663C75.3667 8.18663 76.0336 8.43163 76.539 8.92163C77.0527 9.41163 77.3096 10.1385 77.3096 11.1021V14.8751H75.3708V11.3961C75.3708 10.8735 75.2548 10.4855 75.0228 10.2324C74.7909 9.97104 74.4553 9.84038 74.0162 9.84038C73.5274 9.84038 73.138 9.99146 72.848 10.2936C72.558 10.5876 72.413 11.0286 72.413 11.6166V14.8751H70.4743V8.28463H72.326V9.05638C72.5829 8.77871 72.9018 8.56638 73.2829 8.41938C73.6641 8.26421 74.0825 8.18663 74.5382 8.18663Z" fill="white"/>
<path d="M83.3794 14.5566C83.1888 14.6955 82.9527 14.8016 82.671 14.8751C82.3976 14.9405 82.1076 14.9731 81.801 14.9731C81.0057 14.9731 80.3884 14.773 79.9493 14.3729C79.5185 13.9727 79.3031 13.3847 79.3031 12.6089V9.90163H78.2715V8.43163H79.3031V6.82688H81.2418V8.43163H82.9071V9.90163H81.2418V12.5844C81.2418 12.862 81.3122 13.0785 81.4531 13.2336C81.6022 13.3806 81.8093 13.4541 82.0745 13.4541C82.381 13.4541 82.642 13.3725 82.8574 13.2091L83.3794 14.5566Z" fill="white"/>
</svg>
