<svg width="87" height="25" viewBox="0 0 87 25" fill="none" xmlns="http://www.w3.org/2000/svg">
<rect x="0.583252" y="10.3442" width="4.8852" height="4.8852" fill="#039855"/>
<rect x="15.2388" y="15.2295" width="4.88521" height="4.8852" transform="rotate(180 15.2388 15.2295)" fill="#027A48"/>
<path d="M5.46851 10.3442L10.3537 5.45898V10.3442L5.46851 15.2294V10.3442Z" fill="#A6F4C5"/>
<path d="M10.3538 15.2295L5.46856 20.1147L5.46856 15.2295L10.3538 10.3443L10.3538 15.2295Z" fill="#6CE9A6"/>
<path d="M0.583252 10.3441L10.3537 0.57373V5.45893L5.46845 10.3441H0.583252Z" fill="#32D583"/>
<path d="M15.2388 15.2296L5.46836 25L5.46836 20.1148L10.3536 15.2296L15.2388 15.2296Z" fill="#12B76A"/>
<path d="M25.8784 18.0178C25.109 18.0178 24.3633 17.9086 23.6414 17.6901C22.9289 17.4716 22.3638 17.1819 21.9458 16.821L22.587 15.3819C22.9954 15.7048 23.4941 15.9708 24.0831 16.1798C24.6815 16.3793 25.28 16.479 25.8784 16.479C26.6193 16.479 27.1703 16.3603 27.5312 16.1228C27.9017 15.8853 28.0869 15.5718 28.0869 15.1824C28.0869 14.8974 27.9824 14.6647 27.7734 14.4842C27.574 14.2942 27.3175 14.147 27.004 14.0425C26.6906 13.938 26.2631 13.8193 25.7217 13.6863C24.9617 13.5058 24.3443 13.3253 23.8694 13.1448C23.4039 12.9644 23.0002 12.6841 22.6582 12.3042C22.3258 11.9147 22.1595 11.3923 22.1595 10.7368C22.1595 10.1859 22.3068 9.6872 22.6012 9.24074C22.9052 8.78479 23.3564 8.42383 23.9548 8.15786C24.5628 7.89188 25.3037 7.7589 26.1776 7.7589C26.7855 7.7589 27.384 7.83489 27.9729 7.98687C28.5619 8.13886 29.0701 8.35733 29.4975 8.64231L28.9133 10.0814C28.4764 9.82493 28.0204 9.6302 27.5455 9.49722C27.0705 9.36423 26.6098 9.29774 26.1634 9.29774C25.4319 9.29774 24.8857 9.42122 24.5248 9.6682C24.1733 9.91517 23.9976 10.2429 23.9976 10.6513C23.9976 10.9363 24.0973 11.169 24.2968 11.3495C24.5058 11.53 24.767 11.6725 25.0805 11.777C25.3939 11.8815 25.8214 12.0002 26.3628 12.1332C27.1038 12.3042 27.7117 12.4847 28.1867 12.6746C28.6616 12.8551 29.0653 13.1353 29.3978 13.5153C29.7397 13.8953 29.9107 14.4082 29.9107 15.0541C29.9107 15.6051 29.7587 16.1038 29.4548 16.5502C29.1603 16.9967 28.7091 17.3529 28.1012 17.6189C27.4932 17.8848 26.7523 18.0178 25.8784 18.0178Z" fill="white"/>
<path d="M31.5765 10.2666H33.3575V17.8753H31.5765V10.2666ZM32.4741 9.01277C32.1512 9.01277 31.8804 8.91303 31.662 8.71355C31.4435 8.50457 31.3342 8.2481 31.3342 7.94413C31.3342 7.64016 31.4435 7.38843 31.662 7.18896C31.8804 6.97998 32.1512 6.87549 32.4741 6.87549C32.7971 6.87549 33.0678 6.97523 33.2863 7.17471C33.5048 7.36469 33.614 7.60691 33.614 7.90138C33.614 8.21485 33.5048 8.48082 33.2863 8.6993C33.0773 8.90828 32.8066 9.01277 32.4741 9.01277Z" fill="white"/>
<path d="M38.0462 17.9751C37.4287 17.9751 36.8256 17.8943 36.2366 17.7329C35.6477 17.5714 35.1775 17.3672 34.826 17.1202L35.5099 15.7666C35.8519 15.9945 36.2604 16.1798 36.7353 16.3223C37.2198 16.4552 37.6947 16.5217 38.1602 16.5217C39.2241 16.5217 39.756 16.2415 39.756 15.6811C39.756 15.4151 39.6183 15.2299 39.3428 15.1254C39.0768 15.0209 38.6446 14.9212 38.0462 14.8262C37.4192 14.7312 36.9063 14.6219 36.5073 14.4984C36.1179 14.375 35.7759 14.1612 35.4814 13.8573C35.1965 13.5438 35.054 13.1116 35.054 12.5606C35.054 11.8387 35.3532 11.264 35.9516 10.8366C36.5596 10.3996 37.3765 10.1811 38.4024 10.1811C38.9248 10.1811 39.4473 10.2429 39.9697 10.3664C40.4922 10.4804 40.9196 10.6371 41.2521 10.8366L40.5682 12.1902C39.9222 11.8102 39.1956 11.6202 38.3881 11.6202C37.8657 11.6202 37.4667 11.701 37.1913 11.8625C36.9253 12.0145 36.7923 12.2187 36.7923 12.4752C36.7923 12.7601 36.9348 12.9644 37.2198 13.0878C37.5142 13.2018 37.9654 13.3111 38.5734 13.4156C39.1813 13.5106 39.68 13.6198 40.0695 13.7433C40.4589 13.8668 40.7914 14.0757 41.0669 14.3702C41.3518 14.6647 41.4943 15.0826 41.4943 15.6241C41.4943 16.3365 41.1856 16.9065 40.5682 17.3339C39.9507 17.7614 39.1101 17.9751 38.0462 17.9751Z" fill="white"/>
<path d="M50.0133 10.2666L46.4511 18.488C46.1187 19.3145 45.715 19.8939 45.24 20.2264C44.7651 20.5683 44.1904 20.7393 43.5159 20.7393C43.136 20.7393 42.7608 20.6776 42.3903 20.5541C42.0198 20.4306 41.7159 20.2596 41.4784 20.0411L42.1908 18.7303C42.3618 18.8917 42.5613 19.02 42.7893 19.115C43.0267 19.21 43.2642 19.2575 43.5017 19.2575C43.8152 19.2575 44.0716 19.1767 44.2711 19.0152C44.4801 18.8537 44.6701 18.583 44.8411 18.2031L44.9693 17.9038L41.6494 10.2666H43.5017L45.8954 15.8948L48.3034 10.2666H50.0133Z" fill="white"/>
<path d="M55.344 10.1811C56.0849 10.1811 56.7451 10.3426 57.3245 10.6656C57.9135 10.9886 58.3742 11.4445 58.7066 12.0335C59.0391 12.6224 59.2053 13.3016 59.2053 14.071C59.2053 14.8404 59.0391 15.5243 58.7066 16.1228C58.3742 16.7117 57.9135 17.1677 57.3245 17.4906C56.7451 17.8136 56.0849 17.9751 55.344 17.9751C54.3181 17.9751 53.5059 17.6331 52.9075 16.9492V20.6396H51.1264V10.2666H52.822V11.264C53.1165 10.9031 53.4774 10.6323 53.9049 10.4519C54.3419 10.2714 54.8215 10.1811 55.344 10.1811ZM55.1445 16.4505C55.7999 16.4505 56.3366 16.232 56.7546 15.7951C57.1821 15.3581 57.3958 14.7834 57.3958 14.071C57.3958 13.3586 57.1821 12.7839 56.7546 12.3469C56.3366 11.91 55.7999 11.6915 55.1445 11.6915C54.7171 11.6915 54.3324 11.7912 53.9904 11.9907C53.6484 12.1807 53.3777 12.4562 53.1782 12.8171C52.9787 13.1781 52.879 13.596 52.879 14.071C52.879 14.5459 52.9787 14.9639 53.1782 15.3249C53.3777 15.6858 53.6484 15.966 53.9904 16.1655C54.3324 16.3555 54.7171 16.4505 55.1445 16.4505Z" fill="white"/>
<path d="M65.2118 10.1811C66.1712 10.1811 66.9406 10.4614 67.52 11.0218C68.0995 11.5823 68.3892 12.4134 68.3892 13.5153V17.8753H66.6081V13.7433C66.6081 13.0783 66.4514 12.5796 66.1379 12.2472C65.8244 11.9052 65.378 11.7342 64.7986 11.7342C64.1431 11.7342 63.6254 11.9337 63.2455 12.3327C62.8655 12.7221 62.6755 13.2873 62.6755 14.0282V17.8753H60.8945V7.30294H62.6755V11.15C62.97 10.8366 63.331 10.5991 63.7584 10.4376C64.1954 10.2666 64.6798 10.1811 65.2118 10.1811Z" fill="white"/>
<path d="M78.0151 10.2666V17.8753H76.3195V16.9065C76.0345 17.2484 75.6783 17.5144 75.2508 17.7044C74.8234 17.8848 74.3627 17.9751 73.8687 17.9751C72.8523 17.9751 72.0497 17.6949 71.4607 17.1344C70.8813 16.5645 70.5916 15.7238 70.5916 14.6124V10.2666H72.3726V14.3702C72.3726 15.0541 72.5246 15.5671 72.8286 15.9091C73.1421 16.2415 73.5838 16.4078 74.1537 16.4078C74.7901 16.4078 75.2936 16.213 75.6641 15.8236C76.044 15.4246 76.234 14.8547 76.234 14.1137V10.2666H78.0151Z" fill="white"/>
<path d="M82.698 17.9751C82.0806 17.9751 81.4774 17.8943 80.8885 17.7329C80.2995 17.5714 79.8293 17.3672 79.4779 17.1202L80.1618 15.7666C80.5038 15.9945 80.9122 16.1798 81.3872 16.3223C81.8716 16.4552 82.3466 16.5217 82.812 16.5217C83.8759 16.5217 84.4079 16.2415 84.4079 15.6811C84.4079 15.4151 84.2701 15.2299 83.9946 15.1254C83.7287 15.0209 83.2965 14.9212 82.698 14.8262C82.0711 14.7312 81.5582 14.6219 81.1592 14.4984C80.7697 14.375 80.4278 14.1612 80.1333 13.8573C79.8483 13.5438 79.7058 13.1116 79.7058 12.5606C79.7058 11.8387 80.0051 11.264 80.6035 10.8366C81.2114 10.3996 82.0284 10.1811 83.0542 10.1811C83.5767 10.1811 84.0991 10.2429 84.6216 10.3664C85.144 10.4804 85.5715 10.6371 85.9039 10.8366L85.22 12.1902C84.5741 11.8102 83.8474 11.6202 83.04 11.6202C82.5175 11.6202 82.1186 11.701 81.8431 11.8625C81.5771 12.0145 81.4442 12.2187 81.4442 12.4752C81.4442 12.7601 81.5866 12.9644 81.8716 13.0878C82.1661 13.2018 82.6173 13.3111 83.2252 13.4156C83.8332 13.5106 84.3319 13.6198 84.7213 13.7433C85.1108 13.8668 85.4432 14.0757 85.7187 14.3702C86.0037 14.6647 86.1462 15.0826 86.1462 15.6241C86.1462 16.3365 85.8375 16.9065 85.22 17.3339C84.6026 17.7614 83.7619 17.9751 82.698 17.9751Z" fill="white"/>
</svg>
