<svg width="104" height="27" viewBox="0 0 104 27" fill="none" xmlns="http://www.w3.org/2000/svg">
<path d="M9.42787 18.8034C14.3126 18.8034 18.2725 14.8459 18.2725 9.96415C18.2725 9.41088 18.2217 8.86948 18.1243 8.34437C17.5989 8.24712 17.0572 8.19629 16.5036 8.19629C11.6188 8.19629 7.65894 12.1538 7.65894 17.0356C7.65894 17.5888 7.7098 18.1302 7.8071 18.6554C8.33253 18.7526 8.87426 18.8034 9.42787 18.8034Z" fill="#175CD3"/>
<path fill-rule="evenodd" clip-rule="evenodd" d="M7.80714 18.6555C3.69643 17.8947 0.583252 14.2928 0.583252 9.96429C0.583252 5.08248 4.54314 1.125 9.42791 1.125C13.7591 1.125 17.3631 4.23629 18.1244 8.34451C17.599 8.24726 17.0572 8.19643 16.5036 8.19643C11.6189 8.19643 7.65897 12.1539 7.65897 17.0357C7.65897 17.589 7.70984 18.1304 7.80714 18.6555Z" fill="#1570EF"/>
<path fill-rule="evenodd" clip-rule="evenodd" d="M9.42789 18.8033C14.3127 18.8033 18.2725 14.8458 18.2725 9.96402C18.2725 9.41075 18.2217 8.86935 18.1244 8.34424C22.2351 9.10506 25.3483 12.7069 25.3483 17.0354C25.3483 21.9172 21.3884 25.8747 16.5036 25.8747C12.1725 25.8747 8.56841 22.7634 7.80713 18.6552C8.33256 18.7525 8.87428 18.8033 9.42789 18.8033Z" fill="#2E90FA"/>
<path d="M42.3618 16.2585C42.0466 17.277 41.4951 18.0383 40.7071 18.5423C39.9191 19.0358 38.9998 19.2825 37.9492 19.2825C36.9195 19.2825 36.0265 19.0673 35.27 18.6368C34.5241 18.2063 33.9462 17.592 33.5365 16.794C33.1372 15.996 32.9376 15.0405 32.9376 13.9275C32.9376 12.8145 33.1425 11.859 33.5522 11.061C33.962 10.263 34.5398 9.64878 35.2858 9.21828C36.0317 8.78778 36.909 8.57253 37.9176 8.57253C38.9788 8.57253 39.8876 8.79828 40.644 9.24978C41.411 9.69078 41.9363 10.3628 42.22 11.2658L40.2501 12.1005C40.0714 11.4705 39.7983 11.0243 39.4306 10.7618C39.0628 10.4888 38.5901 10.3523 38.0122 10.3523C37.1507 10.3523 36.4625 10.662 35.9477 11.2815C35.4434 11.8905 35.1912 12.7725 35.1912 13.9275C35.1912 15.072 35.4329 15.954 35.9162 16.5735C36.3995 17.193 37.0981 17.5028 38.0122 17.5028C38.5795 17.5028 39.0681 17.3505 39.4778 17.046C39.8981 16.7415 40.1923 16.2795 40.3604 15.66L42.3618 16.2585Z" fill="white"/>
<path d="M45.0822 10.116C44.1892 10.116 43.7426 9.73278 43.7426 8.96628C43.7426 8.18928 44.1892 7.80078 45.0822 7.80078C45.9753 7.80078 46.4218 8.18928 46.4218 8.96628C46.4218 9.73278 45.9753 10.116 45.0822 10.116ZM46.1539 11.25V19.125H43.9948V11.25H46.1539Z" fill="white"/>
<path d="M48.4426 19.125V11.25H50.318L50.4598 12.7935C50.6594 12.258 50.9588 11.8433 51.3581 11.5493C51.7678 11.2448 52.2826 11.0925 52.9025 11.0925C53.2702 11.0925 53.5539 11.1503 53.7535 11.2658L53.5014 13.077C53.3963 13.0455 53.265 13.0193 53.1074 12.9983C52.9603 12.9668 52.7659 12.951 52.5243 12.951C52.1986 12.951 51.8887 13.0298 51.5945 13.1873C51.3108 13.3343 51.0744 13.5653 50.8853 13.8803C50.6962 14.1848 50.6016 14.5733 50.6016 15.0458V19.125H48.4426Z" fill="white"/>
<path d="M58.5146 11.0925C59.5653 11.0925 60.3795 11.3183 60.9574 11.7698C61.5457 12.2213 61.9345 12.7673 62.1236 13.4078L60.1064 14.1323C59.8962 13.1768 59.3762 12.699 58.5462 12.699C57.9473 12.699 57.4798 12.909 57.1436 13.329C56.8179 13.749 56.655 14.3738 56.655 15.2033C56.655 16.0433 56.8231 16.668 57.1593 17.0775C57.506 17.4765 57.9736 17.676 58.5619 17.676C59.476 17.676 60.0223 17.2088 60.2009 16.2743L62.1551 16.9043C61.9765 17.6078 61.5773 18.18 60.9574 18.621C60.348 19.062 59.5548 19.2825 58.5777 19.2825C57.7582 19.2825 57.0385 19.1198 56.4186 18.7943C55.8093 18.4688 55.3365 18.0015 55.0003 17.3925C54.6641 16.7835 54.496 16.0485 54.496 15.1875C54.496 14.3265 54.6641 13.5915 55.0003 12.9825C55.347 12.3735 55.8198 11.9063 56.4186 11.5808C57.028 11.2553 57.7267 11.0925 58.5146 11.0925Z" fill="white"/>
<path d="M67.4259 11.0925C68.2139 11.0925 68.9126 11.2553 69.522 11.5808C70.1313 11.9063 70.6041 12.3735 70.9403 12.9825C71.287 13.5915 71.4604 14.3265 71.4604 15.1875C71.4604 16.0485 71.287 16.7835 70.9403 17.3925C70.6041 18.0015 70.1313 18.4688 69.522 18.7943C68.9126 19.1198 68.2139 19.2825 67.4259 19.2825C66.6275 19.2825 65.9235 19.1198 65.3142 18.7943C64.7153 18.4688 64.2425 18.0015 63.8958 17.3925C63.5596 16.7835 63.3915 16.0485 63.3915 15.1875C63.3915 14.3265 63.5596 13.5915 63.8958 12.9825C64.2425 12.3735 64.7153 11.9063 65.3142 11.5808C65.9235 11.2553 66.6275 11.0925 67.4259 11.0925ZM67.4259 12.699C66.8376 12.699 66.3753 12.909 66.0391 13.329C65.7134 13.7385 65.5505 14.358 65.5505 15.1875C65.5505 16.017 65.7134 16.6418 66.0391 17.0618C66.3753 17.4713 66.8376 17.676 67.4259 17.676C68.0038 17.676 68.4556 17.4713 68.7813 17.0618C69.1175 16.6418 69.2856 16.017 69.2856 15.1875C69.2856 14.358 69.1175 13.7385 68.7813 13.329C68.4556 12.909 68.0038 12.699 67.4259 12.699Z" fill="white"/>
<path d="M76.8601 11.0925C77.6481 11.0925 78.3468 11.2553 78.9561 11.5808C79.5655 11.9063 80.0383 12.3735 80.3745 12.9825C80.7212 13.5915 80.8946 14.3265 80.8946 15.1875C80.8946 16.0485 80.7212 16.7835 80.3745 17.3925C80.0383 18.0015 79.5655 18.4688 78.9561 18.7943C78.3468 19.1198 77.6481 19.2825 76.8601 19.2825C76.0616 19.2825 75.3577 19.1198 74.7483 18.7943C74.1495 18.4688 73.6767 18.0015 73.33 17.3925C72.9938 16.7835 72.8257 16.0485 72.8257 15.1875C72.8257 14.3265 72.9938 13.5915 73.33 12.9825C73.6767 12.3735 74.1495 11.9063 74.7483 11.5808C75.3577 11.2553 76.0616 11.0925 76.8601 11.0925ZM76.8601 12.699C76.2718 12.699 75.8095 12.909 75.4733 13.329C75.1476 13.7385 74.9847 14.358 74.9847 15.1875C74.9847 16.017 75.1476 16.6418 75.4733 17.0618C75.8095 17.4713 76.2718 17.676 76.8601 17.676C77.438 17.676 77.8897 17.4713 78.2154 17.0618C78.5517 16.6418 78.7198 16.017 78.7198 15.1875C78.7198 14.358 78.5517 13.7385 78.2154 13.329C77.8897 12.909 77.438 12.699 76.8601 12.699Z" fill="white"/>
<path d="M84.8287 7.80078V16.6995C84.8287 17.067 84.8917 17.3243 85.0178 17.4713C85.1439 17.6183 85.354 17.6918 85.6482 17.6918C85.8268 17.6918 85.9739 17.6813 86.0894 17.6603C86.205 17.6393 86.3521 17.5973 86.5307 17.5343L86.3416 18.9518C86.163 19.0568 85.9371 19.1355 85.6639 19.188C85.4013 19.251 85.1386 19.2825 84.876 19.2825C84.109 19.2825 83.5469 19.0988 83.1897 18.7313C82.843 18.3533 82.6696 17.7548 82.6696 16.9358V7.80078H84.8287Z" fill="white"/>
<path d="M91.3899 19.2825C90.1502 19.2825 89.1573 18.9255 88.4114 18.2115C87.6654 17.487 87.2925 16.479 87.2925 15.1875C87.2925 14.3265 87.4606 13.5915 87.7968 12.9825C88.133 12.3735 88.6005 11.9063 89.1994 11.5808C89.8087 11.2553 90.5022 11.0925 91.2796 11.0925C92.0781 11.0925 92.7558 11.2553 93.3126 11.5808C93.8694 11.8958 94.295 12.3315 94.5891 12.888C94.8833 13.434 95.0304 14.0588 95.0304 14.7623C95.0304 14.9723 95.0252 15.1718 95.0146 15.3608C95.0041 15.5498 94.9884 15.7178 94.9674 15.8648H89.4042C89.4883 16.4738 89.6984 16.9305 90.0346 17.235C90.3813 17.529 90.8279 17.676 91.3742 17.676C91.8365 17.676 92.2094 17.5868 92.4931 17.4083C92.7768 17.2298 92.9974 16.983 93.155 16.668L94.8728 17.3295C94.6207 17.949 94.1794 18.432 93.549 18.7785C92.9186 19.1145 92.1989 19.2825 91.3899 19.2825ZM91.2639 12.6833C90.2448 12.6833 89.6301 13.245 89.42 14.3685H92.9659C92.9029 13.8225 92.7243 13.4078 92.4301 13.1243C92.1464 12.8303 91.7577 12.6833 91.2639 12.6833Z" fill="white"/>
<path d="M100.012 19.2825C99.2135 19.2825 98.4833 19.1408 97.8214 18.8573C97.1701 18.5738 96.6395 18.1748 96.2297 17.6603L97.4747 16.4003C97.7269 16.7783 98.0631 17.088 98.4833 17.3295C98.9036 17.571 99.4027 17.6918 99.9805 17.6918C100.39 17.6918 100.716 17.634 100.958 17.5185C101.21 17.3925 101.336 17.1983 101.336 16.9358C101.336 16.7678 101.278 16.626 101.162 16.5105C101.047 16.3845 100.816 16.2848 100.469 16.2113L99.0822 15.9278C98.1682 15.7388 97.5168 15.4553 97.128 15.0773C96.7498 14.6888 96.5607 14.19 96.5607 13.581C96.5607 13.1505 96.6868 12.7463 96.9389 12.3683C97.2016 11.9903 97.5903 11.6858 98.1051 11.4548C98.6199 11.2133 99.2608 11.0925 100.028 11.0925C101.625 11.0925 102.77 11.5808 103.463 12.5573L102.171 13.8173C101.94 13.4498 101.635 13.1715 101.257 12.9825C100.889 12.783 100.501 12.6833 100.091 12.6833C99.1663 12.6833 98.704 12.9405 98.704 13.455C98.704 13.623 98.7775 13.77 98.9246 13.896C99.0717 14.0115 99.3396 14.1113 99.7283 14.1953L101.336 14.526C102.113 14.6835 102.67 14.9513 103.006 15.3293C103.343 15.6968 103.511 16.143 103.511 16.668C103.511 17.424 103.206 18.0488 102.597 18.5423C101.998 19.0358 101.136 19.2825 100.012 19.2825Z" fill="white"/>
</svg>
