<svg width="79" height="23" viewBox="0 0 79 23" fill="none" xmlns="http://www.w3.org/2000/svg">
<path d="M11.3083 0.958496C5.38498 0.958496 0.583252 5.67816 0.583252 11.5002C0.583252 17.3222 5.38498 22.0418 11.3083 22.0418C16.6225 22.0418 21.034 18.2428 21.885 13.2571H21.808C21.0143 16.2882 18.2149 18.5279 14.8833 18.5279C10.9344 18.5279 7.73325 15.3815 7.73325 11.5002C7.73325 7.61882 10.9344 4.47238 14.8833 4.47238C18.2149 4.47238 21.0143 6.71209 21.808 9.74322H21.885C21.034 4.75751 16.6225 0.958496 11.3083 0.958496Z" fill="#A4BCFD"/>
<path d="M0.583252 11.5002C0.583252 5.67816 5.385 0.958496 11.3083 0.958496C16.6225 0.958496 21.034 4.75751 21.885 9.74322H14.658C13.8643 6.71209 11.0649 4.47238 7.73325 4.47238C3.78442 4.47238 0.583252 7.61883 0.583252 11.5002Z" fill="#3538CD"/>
<path d="M0.583252 11.5003C0.583252 17.3223 5.385 22.042 11.3083 22.042C16.6225 22.042 21.034 18.243 21.885 13.2573H14.658C13.8643 16.2884 11.0649 18.5281 7.73325 18.5281C3.78442 18.5281 0.583252 15.3817 0.583252 11.5003Z" fill="#3538CD"/>
<path d="M37.3597 9.82651C37.0543 7.65869 35.3578 6.40088 33.1571 6.40088C30.5638 6.40088 28.6104 8.25901 28.6104 11.4131C28.6104 14.5624 30.5396 16.4253 33.1571 16.4253C35.5178 16.4253 37.0834 14.9245 37.3597 13.0616L35.5468 13.052C35.319 14.1955 34.3689 14.8387 33.1814 14.8387C31.5721 14.8387 30.4184 13.6524 30.4184 11.4131C30.4184 9.2119 31.5624 7.98744 33.1862 7.98744C34.3932 7.98744 35.3384 8.65922 35.5468 9.82651H37.3597Z" fill="white"/>
<path d="M41.0715 16.4396C42.2397 16.4396 42.9378 15.9012 43.2577 15.2866H43.3158V16.2919H45.0027V11.394C45.0027 9.45965 43.3982 8.87839 41.978 8.87839C40.4123 8.87839 39.2102 9.56447 38.8224 10.8985L40.4608 11.1272C40.6353 10.6269 41.1297 10.1981 41.9877 10.1981C42.802 10.1981 43.248 10.6079 43.248 11.3273V11.3559C43.248 11.8514 42.7196 11.8752 41.406 12.0134C39.9615 12.1659 38.58 12.5899 38.58 14.2384C38.58 15.6772 39.6513 16.4396 41.0715 16.4396ZM41.5272 15.1722C40.7952 15.1722 40.2717 14.8435 40.2717 14.2098C40.2717 13.5475 40.8583 13.2712 41.6435 13.1616C42.104 13.0997 43.025 12.9853 43.2528 12.8043V13.6667C43.2528 14.4814 42.5839 15.1722 41.5272 15.1722Z" fill="white"/>
<path d="M50.485 8.97368H49.0163V7.22036H47.2615V8.97368H46.2048V10.3077H47.2615V14.3766C47.2519 15.7535 48.2698 16.43 49.5883 16.3919C50.0875 16.3776 50.4317 16.2823 50.6207 16.2204L50.325 14.8721C50.2281 14.8959 50.0294 14.9388 49.8112 14.9388C49.3701 14.9388 49.0163 14.7863 49.0163 14.0907V10.3077H50.485V8.97368Z" fill="white"/>
<path d="M54.095 16.4396C55.2632 16.4396 55.9612 15.9012 56.2812 15.2866H56.3393V16.2919H58.0262V11.394C58.0262 9.45965 56.4217 8.87839 55.0015 8.87839C53.4358 8.87839 52.2337 9.56447 51.8459 10.8985L53.4843 11.1272C53.6588 10.6269 54.1532 10.1981 55.0112 10.1981C55.8255 10.1981 56.2715 10.6079 56.2715 11.3273V11.3559C56.2715 11.8514 55.7431 11.8752 54.4295 12.0134C52.985 12.1659 51.6035 12.5899 51.6035 14.2384C51.6035 15.6772 52.6748 16.4396 54.095 16.4396ZM54.5507 15.1722C53.8187 15.1722 53.2952 14.8435 53.2952 14.2098C53.2952 13.5475 53.8817 13.2712 54.667 13.1616C55.1275 13.0997 56.0485 12.9853 56.2763 12.8043V13.6667C56.2763 14.4814 55.6074 15.1722 54.5507 15.1722Z" fill="white"/>
<path d="M61.5453 6.53428H59.7906V16.2919H61.5453V6.53428Z" fill="white"/>
<path d="M66.5974 16.4348C68.7787 16.4348 70.165 14.9245 70.165 12.6614C70.165 10.3935 68.7787 8.87839 66.5974 8.87839C64.4161 8.87839 63.0298 10.3935 63.0298 12.6614C63.0298 14.9245 64.4161 16.4348 66.5974 16.4348ZM66.6071 15.0531C65.4001 15.0531 64.8088 13.9954 64.8088 12.6566C64.8088 11.3178 65.4001 10.2458 66.6071 10.2458C67.7947 10.2458 68.3861 11.3178 68.3861 12.6566C68.3861 13.9954 67.7947 15.0531 66.6071 15.0531Z" fill="white"/>
<path d="M74.8924 19.1886C76.904 19.1886 78.3873 18.2834 78.3873 16.411V8.97368H76.6568V10.1838H76.5598C76.2932 9.65499 75.7358 8.87839 74.4222 8.87839C72.7014 8.87839 71.349 10.2029 71.349 12.6089C71.349 14.9959 72.7014 16.187 74.4173 16.187C75.6922 16.187 76.2884 15.5153 76.5598 14.9769H76.6471V16.3633C76.6471 17.4401 75.92 17.8832 74.9214 17.8832C73.8647 17.8832 73.3994 17.3924 73.1861 16.9636L71.6059 17.34C71.9258 18.3644 72.9971 19.1886 74.8924 19.1886ZM74.9069 14.8339C73.7484 14.8339 73.1376 13.9478 73.1376 12.5994C73.1376 11.2701 73.7387 10.2934 74.9069 10.2934C76.0363 10.2934 76.6568 11.213 76.6568 12.5994C76.6568 13.9954 76.0266 14.8339 74.9069 14.8339Z" fill="white"/>
</svg>
