<svg width="87" height="28" viewBox="0 0 87 28" fill="none" xmlns="http://www.w3.org/2000/svg">
<path d="M8.40426 13.0186C8.88861 11.2288 10.7464 9.389 12.5537 8.90934L23.8215 5.91896C25.6288 5.43931 26.7013 6.50141 26.217 8.29123L23.1973 19.4498C22.713 21.2396 20.8552 23.0794 19.0479 23.5591L7.78011 26.5494C5.97277 27.0291 4.90027 25.967 5.38462 24.1772L8.40426 13.0186Z" fill="#9E77ED"/>
<path d="M3.88717 8.54545C4.37152 6.75563 6.2293 4.91585 8.03663 4.4362L19.3044 1.44582C21.1117 0.966161 22.1842 2.02826 21.6999 3.81809L18.6802 14.9767C18.1959 16.7665 16.3381 18.6063 14.5308 19.0859L3.26302 22.0763C1.45568 22.5559 0.383183 21.4938 0.86753 19.704L3.88717 8.54545Z" fill="#6941C6"/>
<path d="M36.6869 18.3304H40.5627V19.8331H34.8066V8.48145H36.6869V18.3304Z" fill="white"/>
<path d="M41.5084 15.2924C41.5084 14.3887 41.6953 13.5883 42.0692 12.8914C42.454 12.1946 42.9708 11.6556 43.6195 11.2744C44.2792 10.8824 45.0049 10.6864 45.7966 10.6864C46.5113 10.6864 47.1326 10.828 47.6603 11.1111C48.1991 11.3833 48.6279 11.7263 48.9468 12.1401V10.8334H50.8435V19.8331H48.9468V18.4938C48.6279 18.9184 48.1936 19.2723 47.6438 19.5554C47.0941 19.8386 46.4673 19.9801 45.7636 19.9801C44.983 19.9801 44.2683 19.7841 43.6195 19.3921C42.9708 18.9892 42.454 18.4339 42.0692 17.7261C41.6953 17.0074 41.5084 16.1962 41.5084 15.2924ZM48.9468 15.3251C48.9468 14.7044 48.8149 14.1654 48.551 13.7081C48.2981 13.2508 47.9627 12.9023 47.5449 12.6628C47.1271 12.4232 46.6763 12.3034 46.1925 12.3034C45.7087 12.3034 45.2578 12.4232 44.84 12.6628C44.4222 12.8914 44.0813 13.2344 43.8174 13.6918C43.5645 14.1382 43.4381 14.6718 43.4381 15.2924C43.4381 15.9131 43.5645 16.4576 43.8174 16.9258C44.0813 17.394 44.4222 17.7533 44.84 18.0038C45.2688 18.2433 45.7196 18.3631 46.1925 18.3631C46.6763 18.3631 47.1271 18.2433 47.5449 18.0038C47.9627 17.7642 48.2981 17.4158 48.551 16.9584C48.8149 16.4902 48.9468 15.9458 48.9468 15.3251Z" fill="white"/>
<path d="M61.4937 10.8334L55.919 24.0634H53.9728L55.8201 19.6861L52.2411 10.8334H54.3357L56.8921 17.6934L59.5475 10.8334H61.4937Z" fill="white"/>
<path d="M71.2417 15.1128C71.2417 15.4503 71.2197 15.7552 71.1757 16.0274H64.2321C64.2871 16.7461 64.5565 17.3232 65.0403 17.7588C65.5241 18.1943 66.1178 18.4121 66.8215 18.4121C67.8331 18.4121 68.5478 17.9929 68.9656 17.1544H70.9943C70.7194 17.982 70.2191 18.6626 69.4934 19.1961C68.7787 19.7188 67.8881 19.9801 66.8215 19.9801C65.9529 19.9801 65.1722 19.7896 64.4795 19.4084C63.7978 19.0164 63.259 18.472 62.8632 17.7751C62.4783 17.0673 62.2859 16.2507 62.2859 15.3251C62.2859 14.3996 62.4728 13.5883 62.8467 12.8914C63.2315 12.1837 63.7648 11.6392 64.4465 11.2581C65.1392 10.877 65.9309 10.6864 66.8215 10.6864C67.6792 10.6864 68.4433 10.8716 69.1141 11.2418C69.7848 11.612 70.3071 12.1347 70.6809 12.8098C71.0548 13.474 71.2417 14.2417 71.2417 15.1128ZM69.279 14.5248C69.268 13.8388 69.0206 13.2889 68.5368 12.8751C68.053 12.4613 67.4538 12.2544 66.739 12.2544C66.0903 12.2544 65.535 12.4613 65.0732 12.8751C64.6114 13.278 64.3365 13.8279 64.2486 14.5248H69.279Z" fill="white"/>
<path d="M74.9722 12.1401C75.2471 11.6828 75.61 11.3289 76.0608 11.0784C76.5226 10.8171 77.0669 10.6864 77.6936 10.6864V12.6138H77.2153C76.4786 12.6138 75.9178 12.7989 75.533 13.1691C75.1591 13.5393 74.9722 14.1818 74.9722 15.0964V19.8331H73.092V10.8334H74.9722V12.1401Z" fill="white"/>
<path d="M82.7205 19.9801C82.0058 19.9801 81.3626 19.8549 80.7908 19.6044C80.2301 19.3431 79.7847 18.9947 79.4549 18.5591C79.125 18.1127 78.9491 17.6172 78.9271 17.0728H80.8733C80.9063 17.4539 81.0877 17.7751 81.4176 18.0364C81.7584 18.2869 82.1817 18.4121 82.6875 18.4121C83.2153 18.4121 83.6221 18.3141 83.908 18.1181C84.2049 17.9112 84.3533 17.6499 84.3533 17.3341C84.3533 16.9966 84.1884 16.7461 83.8585 16.5828C83.5397 16.4194 83.0284 16.2398 82.3247 16.0438C81.643 15.8587 81.0877 15.679 80.6589 15.5048C80.2301 15.3306 79.8562 15.0638 79.5373 14.7044C79.2295 14.3451 79.0755 13.8714 79.0755 13.2834C79.0755 12.8043 79.2185 12.3688 79.5044 11.9768C79.7902 11.5739 80.1971 11.2581 80.7248 11.0294C81.2636 10.8008 81.8794 10.6864 82.5721 10.6864C83.6057 10.6864 84.4358 10.9478 85.0625 11.4704C85.7003 11.9822 86.0411 12.6846 86.0851 13.5774H84.2049C84.1719 13.1746 84.007 12.8533 83.7101 12.6138C83.4132 12.3742 83.0119 12.2544 82.5061 12.2544C82.0113 12.2544 81.632 12.347 81.3681 12.5321C81.1042 12.7172 80.9722 12.9622 80.9722 13.2671C80.9722 13.5067 81.0602 13.7081 81.2361 13.8714C81.4121 14.0348 81.6265 14.1654 81.8794 14.2634C82.1323 14.3506 82.5061 14.4649 83.0009 14.6064C83.6606 14.7807 84.1994 14.9603 84.6172 15.1454C85.0461 15.3197 85.4144 15.581 85.7223 15.9294C86.0301 16.2779 86.1896 16.7407 86.2006 17.3178C86.2006 17.8296 86.0576 18.2869 85.7718 18.6898C85.4859 19.0927 85.079 19.4084 84.5513 19.6371C84.0345 19.8658 83.4242 19.9801 82.7205 19.9801Z" fill="white"/>
</svg>
