<svg width="261" height="367" viewBox="0 0 261 367" fill="none" xmlns="http://www.w3.org/2000/svg">
<g clip-path="url(#clip0_1073_13759)">
<path d="M-5.04359 366.378L20.4507 340.859C28.939 332.364 33.7047 320.846 33.6996 308.839C33.6945 296.831 28.9189 285.318 20.4234 276.83L5.82609 262.249C4.34519 260.769 3.51281 258.761 3.51191 256.668C3.51102 254.574 4.34169 252.566 5.82133 251.085L5.95745 250.939C6.71422 250.18 7.61313 249.579 8.60274 249.168C9.59236 248.757 10.6533 248.546 11.7248 248.545C12.7963 248.545 13.8574 248.755 14.8473 249.165C15.8373 249.575 16.7367 250.176 17.4941 250.934L63.8649 297.224C71.6153 304.963 82.1226 309.308 93.0765 309.303C104.03 309.298 114.534 304.944 122.278 297.199V297.199C126.113 293.364 129.155 288.811 131.229 283.8C133.304 278.789 134.37 273.418 134.368 267.995C134.365 262.572 133.294 257.202 131.216 252.193C129.137 247.184 126.091 242.633 122.253 238.801L-19.3215 97.3742L-15.0839 66.2527L36.4932 117.773C41.8414 123.117 48.1903 127.356 55.1774 130.246C62.1644 133.137 69.6527 134.623 77.2144 134.62C84.7761 134.617 92.2631 133.124 99.2477 130.228C106.232 127.331 112.578 123.087 117.921 117.738V117.738C128.713 106.937 134.771 92.2933 134.765 77.0271C134.758 61.761 128.687 47.1225 117.886 36.3308L39.061 -42.4071C38.246 -43.2197 37.5992 -44.185 37.1577 -45.2478C36.7163 -46.3106 36.4888 -47.45 36.4883 -48.6008C36.4878 -49.7515 36.7143 -50.8911 37.1549 -51.9543C37.5954 -53.0175 38.2414 -53.9833 39.0557 -54.7966V-54.7966C39.8683 -55.61 40.8333 -56.2554 41.8955 -56.6958C42.9576 -57.1363 44.0962 -57.3633 45.2461 -57.3638C46.396 -57.3643 47.5348 -57.1383 48.5973 -56.6987C49.6598 -56.2591 50.6253 -55.6146 51.4387 -54.8019L168.129 61.7205C171.152 64.742 174.741 67.1384 178.691 68.7727C182.641 70.4071 186.874 71.2474 191.149 71.2455C195.423 71.2437 199.656 70.3998 203.604 68.7621C207.552 67.1244 211.139 64.725 214.159 61.7009V61.7009C220.258 55.5963 223.682 47.3203 223.678 38.6926C223.674 30.0649 220.243 21.7918 214.14 15.6924L133.29 -65.0674C132.418 -65.9385 131.726 -66.9729 131.253 -68.1116C130.781 -69.2502 130.537 -70.4708 130.537 -71.7035C130.536 -72.9362 130.779 -74.1569 131.25 -75.296C131.722 -76.435 132.413 -77.47 133.285 -78.3419V-78.3419C135.047 -80.0986 137.434 -81.0856 139.922 -81.0867C142.411 -81.0878 144.799 -80.1028 146.562 -78.3475L147.974 -76.9089C160.869 -64.0301 178.353 -56.7994 196.58 -56.8072C214.807 -56.815 232.285 -64.0606 245.17 -76.9503L305.454 -137.27L-44.168 -137.121" fill="#29313D" fill-opacity="0.08"/>
<path d="M-15.1643 -4.86924L44.2669 54.2106C45.5778 55.516 47.1347 56.5514 48.8485 57.2576C50.5622 57.9637 52.3992 58.3268 54.2542 58.326C56.1092 58.3252 57.9459 57.9606 59.659 57.253C61.3721 56.5453 62.9282 55.5086 64.238 54.2021C66.8833 51.5678 68.3684 47.9965 68.3668 44.2734C68.3652 40.5503 66.8771 36.9803 64.2295 34.3483L32.4594 2.78604C31.5652 1.87947 31.064 0.660324 31.0635 -0.609661C31.0629 -1.87965 31.563 -3.09922 32.4565 -4.00655C33.3679 -4.89593 34.5937 -5.39437 35.8706 -5.39492C37.1474 -5.39546 38.3736 -4.89806 39.2859 -4.00946L50.1394 6.65997C50.8483 7.36588 51.6903 7.92578 52.6171 8.30767C53.5439 8.68955 54.5373 8.8859 55.5404 8.88548C56.5436 8.88505 57.5368 8.68785 58.4633 8.30517C59.3898 7.9225 60.2312 7.36188 60.9396 6.65536C61.6493 5.95023 62.2123 5.11279 62.5962 4.191C62.9802 3.26922 63.1776 2.2812 63.1772 1.28344C63.1768 0.285675 62.9785 -0.702233 62.5938 -1.62369C62.209 -2.54515 61.6454 -3.38211 60.935 -4.08664L31.8489 -33.03C29.9324 -34.9341 28.4118 -37.1951 27.374 -39.6838C26.3361 -42.1725 25.8013 -44.8402 25.8002 -47.5345C25.799 -50.2288 26.3315 -52.8969 27.3673 -55.3865C28.403 -57.8761 29.9217 -60.1383 31.8366 -62.0441L32.6362 -62.8402L-23.9742 -119.097C-23.9742 -119.097 -15.818 -4.86896 -15.1643 -4.86924Z" fill="#323A49" fill-opacity="0.1"/>
</g>
<defs>
<clipPath id="clip0_1073_13759">
<rect width="413.345" height="286.906" fill="white" transform="translate(-26.3438 366.387) rotate(-90.0245)"/>
</clipPath>
</defs>
</svg>
